<?xml version="1.0" encoding="UTF-8"?>
<svg version="1.1" xmlns="http://www.w3.org/2000/svg" width="479" height="178">
<path d="M0 0 C51.81 0 103.62 0 157 0 C157 51.48 157 102.96 157 156 C105.19 156 53.38 156 0 156 C0 104.52 0 53.04 0 0 Z M11 11 C11 55.55 11 100.1 11 146 C34.43 146 57.86 146 82 146 C80.59878364 137.42066355 80.59878364 137.42066355 78.0859375 129.59765625 C75.80532901 123.64929766 74.20808881 117.60241316 72.625 111.4375 C70.35046313 102.70952468 67.91486427 94.1247718 64.68994141 85.69506836 C61.75321625 77.59968821 64.56873915 70.47691224 66.875 62.5625 C67.13152344 61.65951172 67.38804688 60.75652344 67.65234375 59.82617188 C68.80607396 55.82290197 70.00197918 51.87800314 71.5078125 47.9921875 C73.33206924 43.27524897 74.65161132 38.43285184 76 33.5625 C77.65626312 27.60599122 79.37270477 21.71593435 81.44921875 15.89038086 C82.1398643 13.84812452 82.1398643 13.84812452 82 11 C58.57 11 35.14 11 11 11 Z M94 11 C90.51921046 18.80247743 90.51921046 18.80247743 88.1875 26.6875 C86.54109697 33.25081709 84.57156424 39.68402033 82.5 46.125 C82.19723145 47.06794922 81.89446289 48.01089844 81.58251953 48.98242188 C80.99305642 50.81516868 80.40291098 52.64769619 79.81201172 54.47998047 C78.71680757 57.87886718 77.63219013 61.28047983 76.5625 64.6875 C76.10037109 66.14736328 76.10037109 66.14736328 75.62890625 67.63671875 C74.87141723 70.0755952 74.87141723 70.0755952 75 73 C98.43 73 121.86 73 146 73 C146 52.54 146 32.08 146 11 C128.84 11 111.68 11 94 11 Z M75 83 C77.327448 92.30979202 79.55315722 100.85006444 82.64453125 109.80078125 C84.64542456 115.8005122 86.19505055 121.93801971 87.76904297 128.06103516 C88.00123535 128.94452637 88.23342773 129.82801758 88.47265625 130.73828125 C88.67125244 131.51212158 88.86984863 132.28596191 89.07446289 133.08325195 C90.46818145 137.47543229 92.28863033 141.72157583 94 146 C111.16 146 128.32 146 146 146 C146 125.21 146 104.42 146 83 C122.57 83 99.14 83 75 83 Z " fill="#ABABAB" transform="translate(13,15)"/>
<path d="M0 0 C1.134375 0.020625 2.26875 0.04125 3.4375 0.0625 C5.24992323 4.0813515 6.77251617 7.67360675 7.4375 12.0625 C7.7675 12.0625 8.0975 12.0625 8.4375 12.0625 C8.64246094 11.28003906 8.84742188 10.49757813 9.05859375 9.69140625 C9.32800781 8.67949219 9.59742188 7.66757812 9.875 6.625 C10.14183594 5.61566406 10.40867187 4.60632813 10.68359375 3.56640625 C11.4375 1.0625 11.4375 1.0625 12.4375 0.0625 C15.9375 -0.0625 15.9375 -0.0625 19.4375 0.0625 C20.4375 1.0625 20.4375 1.0625 20.55102539 4.38891602 C20.55086629 5.86475556 20.54517314 7.34060069 20.53515625 8.81640625 C20.5337413 9.59185287 20.53232635 10.3672995 20.53086853 11.16624451 C20.52525345 13.65253494 20.51269846 16.1387366 20.5 18.625 C20.49498694 20.30663933 20.4904237 21.98828006 20.48632812 23.66992188 C20.47527913 27.80081566 20.45800445 31.93164276 20.4375 36.0625 C18.4575 36.0625 16.4775 36.0625 14.4375 36.0625 C13.9425 26.1625 13.9425 26.1625 13.4375 16.0625 C12.4475 19.0325 11.4575 22.0025 10.4375 25.0625 C8.7875 25.0625 7.1375 25.0625 5.4375 25.0625 C4.4475 22.4225 3.4575 19.7825 2.4375 17.0625 C2.1075 23.3325 1.7775 29.6025 1.4375 36.0625 C-0.2125 36.0625 -1.8625 36.0625 -3.5625 36.0625 C-5.2954298 34.3295702 -4.69070046 32.10035664 -4.70144653 29.79101562 C-4.6994223 29.05560547 -4.69739807 28.32019531 -4.6953125 27.5625 C-4.69626923 26.81162109 -4.69722595 26.06074219 -4.69821167 25.28710938 C-4.69889338 23.69661373 -4.69703972 22.10611533 -4.69287109 20.515625 C-4.68752267 18.07285345 -4.69281634 15.63026579 -4.69921875 13.1875 C-4.69855797 11.64583293 -4.6972768 10.10416597 -4.6953125 8.5625 C-4.69733673 7.82708984 -4.69936096 7.09167969 -4.70144653 6.33398438 C-4.672354 0.08197112 -4.672354 0.08197112 0 0 Z " fill="#B6B6B6" transform="translate(266.5625,18.9375)"/>
<path d="M0 0 C2.64 0 5.28 0 8 0 C8.32613281 0.86882812 8.65226563 1.73765625 8.98828125 2.6328125 C9.64376953 4.36144531 9.64376953 4.36144531 10.3125 6.125 C10.74175781 7.26195312 11.17101562 8.39890625 11.61328125 9.5703125 C12.91276508 12.78424716 14.449643 15.89928599 16 19 C16.33 12.73 16.66 6.46 17 0 C18.98 0 20.96 0 23 0 C23 11.55 23 23.1 23 35 C20.36 35 17.72 35 15 35 C13.8507433 32.25138605 12.70548659 29.50122016 11.5625 26.75 C11.07426758 25.58404297 11.07426758 25.58404297 10.57617188 24.39453125 C10.26357422 23.64042969 9.95097656 22.88632813 9.62890625 22.109375 C9.34088135 21.41811523 9.05285645 20.72685547 8.75610352 20.01464844 C8 18 8 18 7 14 C6.67 20.93 6.34 27.86 6 35 C4.02 35 2.04 35 0 35 C0 23.45 0 11.9 0 0 Z " fill="#ACACAC" transform="translate(233,131)"/>
<path d="M0 0 C2.64 0 5.28 0 8 0 C9.1492567 2.74861395 10.29451341 5.49877984 11.4375 8.25 C11.76298828 9.02730469 12.08847656 9.80460938 12.42382812 10.60546875 C12.89272461 11.73662109 12.89272461 11.73662109 13.37109375 12.890625 C13.65911865 13.58188477 13.94714355 14.27314453 14.24389648 14.98535156 C15 17 15 17 16 21 C16.33 14.07 16.66 7.14 17 0 C18.98 0 20.96 0 23 0 C23 11.55 23 23.1 23 35 C20.36 35 17.72 35 15 35 C13.27682043 32.41523065 12.46709355 30.70004439 11.5625 27.8125 C10.19011186 23.46006904 8.61280718 19.30081913 7 15 C6.67 21.6 6.34 28.2 6 35 C4.02 35 2.04 35 0 35 C0 23.45 0 11.9 0 0 Z " fill="#AEAEAE" transform="translate(323,131)"/>
<path d="M0 0 C6.20529954 0.08012582 12.09799886 0.84799886 16.625 5.375 C17.86785647 9.45867125 17.77876247 13.16914053 16.5 17.25 C14.44140625 20.03125 14.44140625 20.03125 12.5 22.25 C12.933125 23.09304687 13.36625 23.93609375 13.8125 24.8046875 C14.369375 25.90039062 14.92625 26.99609375 15.5 28.125 C16.056875 29.21554688 16.61375 30.30609375 17.1875 31.4296875 C18.5 34.25 18.5 34.25 18.5 36.25 C16.19 36.25 13.88 36.25 11.5 36.25 C10.49515796 34.29414675 9.49626195 32.33523763 8.5 30.375 C7.943125 29.28445312 7.38625 28.19390625 6.8125 27.0703125 C5.5 24.25 5.5 24.25 5.5 22.25 C3.85 22.25 2.2 22.25 0.5 22.25 C0.5 26.87 0.5 31.49 0.5 36.25 C-1.48 36.25 -3.46 36.25 -5.5 36.25 C-5.52465098 31.28377651 -5.54283649 26.31758834 -5.55493164 21.35131836 C-5.5599719 19.66055684 -5.56680405 17.96979971 -5.57543945 16.27905273 C-5.58751857 13.85399293 -5.59323123 11.42899056 -5.59765625 9.00390625 C-5.60281754 8.24348526 -5.60797882 7.48306427 -5.61329651 6.69960022 C-5.61349238 4.8826743 -5.56197277 3.06586873 -5.5 1.25 C-3.89739862 -0.35260138 -2.21501415 0.04101878 0 0 Z M0.5 7.25 C0.5 10.22 0.5 13.19 0.5 16.25 C3.8 15.92 7.1 15.59 10.5 15.25 C10.54241723 12.91705225 10.54092937 10.58297433 10.5 8.25 C9.49163938 7.01732652 9.49163938 7.01732652 7.43359375 7.15234375 C5.12239583 7.18489583 2.81119792 7.21744792 0.5 7.25 Z " fill="#B2B2B2" transform="translate(209.5,18.75)"/>
<path d="M0 0 C15 0 15 0 20 2 C22.20827308 5.31240961 22.69719195 7.06349537 23 11 C22.10788095 15.38625199 21.29328679 18.00528042 18 21 C18.44472656 21.91523437 18.88945312 22.83046875 19.34765625 23.7734375 C20.19650391 25.55621094 20.19650391 25.55621094 21.0625 27.375 C21.63097656 28.55835937 22.19945312 29.74171875 22.78515625 30.9609375 C23.18605469 31.96382812 23.58695312 32.96671875 24 34 C23.67 34.66 23.34 35.32 23 36 C21.02 36 19.04 36 17 36 C16.54109375 35.00097656 16.0821875 34.00195312 15.609375 32.97265625 C14.99033235 31.66891492 14.37049936 30.36554866 13.75 29.0625 C13.44964844 28.40314453 13.14929688 27.74378906 12.83984375 27.06445312 C11.1113686 23.27447765 11.1113686 23.27447765 7.765625 21.05859375 C7.18296875 21.03925781 6.6003125 21.01992187 6 21 C6.01160156 21.91523437 6.02320313 22.83046875 6.03515625 23.7734375 C6.04417969 24.96195313 6.05320312 26.15046875 6.0625 27.375 C6.07410156 28.55835937 6.08570313 29.74171875 6.09765625 30.9609375 C6 34 6 34 5 36 C3.35 36 1.7 36 0 36 C0 24.12 0 12.24 0 0 Z M6 6 C6 8.97 6 11.94 6 15 C10.50225924 15.09214858 10.50225924 15.09214858 15 15 C16.33187793 13.88833136 16.33187793 13.88833136 16.1875 11.0625 C16.33278733 7.89107141 16.33278733 7.89107141 14 6 C11.31160615 5.73008094 8.70858064 5.91262643 6 6 Z " fill="#B0B0B0" transform="translate(324,75)"/>
<path d="M0 0 C14 0 14 0 19 2 C19 2.66 19 3.32 19 4 C19.66 4 20.32 4 21 4 C24.86075098 10.39436881 26.0730798 15.54263738 25 23 C23.67705471 27.30134083 22.07180566 30.16935061 18.5 32.9375 C11.9039318 35.74082899 7.95386253 35 0 35 C0 23.45 0 11.9 0 0 Z M6 6 C6 13.92 6 21.84 6 30 C8.97 29.34 11.94 28.68 15 28 C15 27.34 15 26.68 15 26 C15.66 26 16.32 26 17 26 C19.0088583 21.85672976 19.40215934 18.58461644 19 14 C17.42275698 10.01933905 16.58999089 8.39332726 13 6 C10.69 6 8.38 6 6 6 Z " fill="#AAAAAA" transform="translate(263,131)"/>
<path d="M0 0 C4.45195977 2.96797318 5.58012362 5.97863459 7 11 C7.80622708 18.55603517 7.89558373 25.83126136 3 32 C-0.25238102 34.89100535 -2.19611277 35.88515897 -6.5 36.5 C-11.32466982 35.81076145 -14.20010149 34.26798357 -17.26171875 30.41015625 C-20.88737673 24.39283616 -20.8589496 17.82057012 -20 11 C-16.58380681 0.30148278 -10.85404476 -1.44357433 0 0 Z M-10.625 7.375 C-14.35543228 11.49810936 -14.21848332 14.0699428 -14.15625 19.453125 C-13.96250107 22.61123251 -13.35846844 25.14006645 -12 28 C-8.75366476 30.1642235 -7.75698557 30.37569856 -4 30 C-0.72270357 27.81513571 -0.53695688 27.53592379 0.25 23.9375 C1.14753292 19.1736714 1.42225894 14.68348963 0 10 C-2.18854423 6.89138486 -2.18854423 6.89138486 -5 5 C-8.21922387 4.66454334 -8.21922387 4.66454334 -10.625 7.375 Z " fill="#B0B0B0" transform="translate(311,131)"/>
<path d="M0 0 C2.845389 1.73320322 3.40936462 2.93655408 5 6 C5 7.32 5 8.64 5 10 C3.02 10 1.04 10 -1 10 C-1.33 8.68 -1.66 7.36 -2 6 C-6.65052872 5.73067479 -6.65052872 5.73067479 -11 7 C-10.67 8.65 -10.34 10.3 -10 12 C-4.555 13.485 -4.555 13.485 1 15 C1 15.66 1 16.32 1 17 C1.639375 17.28875 2.27875 17.5775 2.9375 17.875 C5 19 5 19 6 21 C6.57538625 28.01971231 6.57538625 28.01971231 4.3125 31.875 C0.77534717 35.12535666 -1.72342693 35.90881621 -6.5 36.25 C-9.81006042 36.01356711 -12.0383439 35.43595447 -15 34 C-15 33.34 -15 32.68 -15 32 C-15.66 32 -16.32 32 -17 32 C-18.85776765 28.86501708 -19.20140476 26.62528568 -19 23 C-17.35 23 -15.7 23 -14 23 C-13.34 24.65 -12.68 26.3 -12 28 C-10.54364629 28.22174933 -9.08477044 28.42698698 -7.625 28.625 C-6.81289063 28.74101562 -6.00078125 28.85703125 -5.1640625 28.9765625 C-4.44992187 28.98429687 -3.73578125 28.99203125 -3 29 C-0.8614515 26.8614515 -0.57344937 25.86724686 0 23 C-0.66 23 -1.32 23 -2 23 C-2 22.34 -2 21.68 -2 21 C-2.73605469 20.91363281 -3.47210938 20.82726562 -4.23046875 20.73828125 C-8.88325453 20.06832927 -12.22686871 19.5411919 -16.125 16.8125 C-18.45151281 13.32273078 -19.07367768 11.19962759 -19 7 C-14.5673522 -1.2538959 -8.82647123 -1.16885201 0 0 Z " fill="#B0B0B0" transform="translate(401,131)"/>
<path d="M0 0 C3.125 1.625 3.125 1.625 5 4 C5.8125 7.25 5.8125 7.25 6 10 C3.125 10.1875 3.125 10.1875 0 10 C-0.66 9.01 -1.32 8.02 -2 7 C-3.97747122 6.63702064 -3.97747122 6.63702064 -6.125 6.8125 C-7.40375 6.874375 -8.6825 6.93625 -10 7 C-10 8.65 -10 10.3 -10 12 C-9.26394531 12.17015625 -8.52789062 12.3403125 -7.76953125 12.515625 C2.25484288 15.00516573 2.25484288 15.00516573 6 19 C7.49084832 23.47254497 7.49084832 27.52745503 6 32 C5.34 32 4.68 32 4 32 C4 32.66 4 33.32 4 34 C-0.5703622 36.63269712 -4.84236976 36.65894014 -10 36 C-13.69381707 34.21905248 -15.43939133 33.0447707 -17.375 29.4375 C-18 27 -18 27 -18 24 C-16.02 24 -14.04 24 -12 24 C-11.67 25.32 -11.34 26.64 -11 28 C-10.34 28 -9.68 28 -9 28 C-9 28.66 -9 29.32 -9 30 C-5.04 29.505 -5.04 29.505 -1 29 C-0.32041397 26.60280568 -0.32041397 26.60280568 0 24 C-3.08830814 20.91169186 -7.02986407 20.33490106 -11.15234375 19.09765625 C-13.94324352 18.02187733 -15.32616782 17.44812189 -17 15 C-17.62505936 11.62693191 -17.51630458 8.38651393 -17 5 C-12.61230284 -0.99651946 -6.92121667 -0.70910012 0 0 Z " fill="#B0B0B0" transform="translate(280,75)"/>
<path d="M0 0 C1.98 0 3.96 0 6 0 C6 4.95 6 9.9 6 15 C9.63 15 13.26 15 17 15 C17 10.05 17 5.1 17 0 C18.98 0 20.96 0 23 0 C23 11.88 23 23.76 23 36 C21.02 36 19.04 36 17 36 C17 31.05 17 26.1 17 21 C13.37 21 9.74 21 6 21 C6 25.95 6 30.9 6 36 C4.02 36 2.04 36 0 36 C0 24.12 0 12.24 0 0 Z " fill="#ADADAD" transform="translate(323,19)"/>
<path d="M0 0 C2.31 0 4.62 0 7 0 C7.25394531 0.845625 7.50789063 1.69125 7.76953125 2.5625 C9.93745261 9.81724581 9.93745261 9.81724581 12.5 16.9375 C14.79120873 22.79843724 16.3237672 28.94173729 18 35 C17 36 17 36 14.4375 36.0625 C13.633125 36.041875 12.82875 36.02125 12 36 C10.5393715 33.35261084 10 32.10551666 10 29 C5.71 29 1.42 29 -3 29 C-3 30.65 -3 32.3 -3 34 C-5 36 -5 36 -7.625 36.125 C-8.40875 36.08375 -9.1925 36.0425 -10 36 C-11.41006698 33.17986605 -10.36558369 31.46067244 -9.43617249 28.58956909 C-9.0675132 27.4894902 -9.0675132 27.4894902 -8.69140625 26.3671875 C-8.44583481 25.61535187 -8.20026337 24.86351624 -7.94725037 24.08889771 C-7.15928305 21.68191855 -6.36102765 19.27849391 -5.5625 16.875 C-5.02731507 15.24631695 -4.49280111 13.61741325 -3.95898438 11.98828125 C-2.64710236 7.98958319 -1.32598204 3.99404349 0 0 Z M3 11 C1.515 16.445 1.515 16.445 0 22 C2.31 22 4.62 22 7 22 C6.44894091 18.0507432 5.61064629 14.65079826 4 11 C3.67 11 3.34 11 3 11 Z " fill="#ADADAD" transform="translate(211,75)"/>
<path d="M0 0 C1.66611905 -0.042721 3.33382885 -0.04063832 5 0 C6.79419027 1.79419027 6.17270475 4.51037375 6.2109375 6.93359375 C6.23929688 8.13951172 6.26765625 9.34542969 6.296875 10.58789062 C6.34887611 13.15024541 6.39317176 15.71276838 6.4296875 18.27539062 C6.460625 19.48259766 6.4915625 20.68980469 6.5234375 21.93359375 C6.54325684 23.04790771 6.56307617 24.16222168 6.58349609 25.31030273 C6.72094238 26.19790283 6.85838867 27.08550293 7 28 C10.4352048 30.29013653 11.985331 30.17842973 16 30 C16.02505615 29.12674072 16.0501123 28.25348145 16.07592773 27.35375977 C16.17087709 24.12397448 16.27012029 20.89435846 16.37231445 17.66479492 C16.41571434 16.26510801 16.45738564 14.86536641 16.49731445 13.46557617 C16.55489445 11.45738505 16.61914 9.44938851 16.68359375 7.44140625 C16.72025146 6.23170166 16.75690918 5.02199707 16.79467773 3.77563477 C17 1 17 1 18 0 C20.5 -0.125 20.5 -0.125 23 0 C24.61833756 1.61833756 24.12990251 3.3959014 24.1328125 5.62890625 C24.13474609 7.05879883 24.13474609 7.05879883 24.13671875 8.51757812 C24.13285156 9.52240234 24.12898438 10.52722656 24.125 11.5625 C24.13080078 13.02913086 24.13080078 13.02913086 24.13671875 14.52539062 C24.11721522 29.0847739 24.11721522 29.0847739 21.25 34 C16.21624191 37.09769728 10.74320727 37.20834806 5 36 C1.5987335 33.33796326 0.15011362 31.90268323 -0.56762695 27.58666992 C-0.54144287 26.31412354 -0.51525879 25.04157715 -0.48828125 23.73046875 C-0.48120651 23.04946609 -0.47413177 22.36846344 -0.46684265 21.66682434 C-0.43900069 19.50590005 -0.37629527 17.34763178 -0.3125 15.1875 C-0.28740332 13.71683448 -0.26459253 12.24612807 -0.24414062 10.77539062 C-0.18921188 7.18274043 -0.10301647 3.59162972 0 0 Z " fill="#B2B2B2" transform="translate(233,19)"/>
<path d="M0 0 C1.2065625 0.0309375 1.2065625 0.0309375 2.4375 0.0625 C5.05732855 4.6783884 6.3566124 9.25552332 7.68359375 14.3828125 C8.64258289 17.79144749 9.98261644 20.83645385 11.4375 24.0625 C13.06632568 28.2631557 13.65216444 31.55454678 13.4375 36.0625 C11.4575 36.0625 9.4775 36.0625 7.4375 36.0625 C6.7775 34.0825 6.1175 32.1025 5.4375 30.0625 C1.8075 30.0625 -1.8225 30.0625 -5.5625 30.0625 C-6.2225 32.0425 -6.8825 34.0225 -7.5625 36.0625 C-9.5425 36.0625 -11.5225 36.0625 -13.5625 36.0625 C-13.81320588 31.27451826 -12.99135584 27.67937419 -11.41015625 23.16796875 C-11.19056747 22.53514481 -10.9709787 21.90232086 -10.74473572 21.25032043 C-10.28248024 19.92358212 -9.8158214 18.59837053 -9.3449707 17.2746582 C-8.62204477 15.24168947 -7.91246549 13.20443716 -7.20507812 11.16601562 C-3.32740802 0.08115629 -3.32740802 0.08115629 0 0 Z M-0.5625 11.0625 C-1.07083591 12.30913331 -1.56881145 13.55999387 -2.0625 14.8125 C-2.3409375 15.50859375 -2.619375 16.2046875 -2.90625 16.921875 C-3.75790327 19.32672695 -3.75790327 19.32672695 -3.5625 23.0625 C-1.2525 23.0625 1.0575 23.0625 3.4375 23.0625 C2.83825776 18.86780429 1.86250059 15.05250166 0.4375 11.0625 C0.1075 11.0625 -0.2225 11.0625 -0.5625 11.0625 Z " fill="#B0B0B0" transform="translate(304.5625,18.9375)"/>
<path d="M0 0 C7.26 0 14.52 0 22 0 C22 1.98 22 3.96 22 6 C16.72 6 11.44 6 6 6 C6 8.64 6 11.28 6 14 C10.62 14 15.24 14 20 14 C20 15.98 20 17.96 20 20 C15.38 20 10.76 20 6 20 C6.33 22.97 6.66 25.94 7 29 C8.37285156 28.98259766 8.37285156 28.98259766 9.7734375 28.96484375 C11.55621094 28.95130859 11.55621094 28.95130859 13.375 28.9375 C14.55835938 28.92589844 15.74171875 28.91429687 16.9609375 28.90234375 C20 29 20 29 22 30 C22 31.65 22 33.3 22 35 C14.74 35 7.48 35 0 35 C0 23.45 0 11.9 0 0 Z " fill="#B0B0B0" transform="translate(354,131)"/>
<path d="M0 0 C2.31 0 4.62 0 7 0 C8.24910036 3.69739849 9.4940417 7.39616995 10.73535156 11.09619141 C11.36310122 12.96458525 11.99402032 14.83191325 12.625 16.69921875 C14.65646829 22.76085801 16.58146521 28.76468223 18 35 C15.69 35 13.38 35 11 35 C10.34 33.02 9.68 31.04 9 29 C5.04 28.67 1.08 28.34 -3 28 C-3.33 30.31 -3.66 32.62 -4 35 C-6.31 35 -8.62 35 -11 35 C-9.48406093 27.21207125 -7.0210974 19.90859062 -4.375 12.4375 C-3.95476562 11.23802734 -3.53453125 10.03855469 -3.1015625 8.80273438 C-2.07225134 5.86685823 -1.03830116 2.93270619 0 0 Z M3 10 C2.33139964 11.81178758 1.66516988 13.62445016 1 15.4375 C0.443125 16.95150391 0.443125 16.95150391 -0.125 18.49609375 C-1.05498186 20.71527153 -1.05498186 20.71527153 -1 22 C1.64 22 4.28 22 7 22 C6.01 18.04 5.02 14.08 4 10 C3.67 10 3.34 10 3 10 Z " fill="#B0B0B0" transform="translate(451,131)"/>
<path d="M0 0 C7.59 0 15.18 0 23 0 C23 1.65 23 3.3 23 5 C22.67 5.33 22.34 5.66 22 6 C19.69 6 17.38 6 15 6 C15.33 13.59 15.66 21.18 16 29 C18.31 29.33 20.62 29.66 23 30 C23 31.65 23 33.3 23 35 C15.41 35 7.82 35 0 35 C0 33.35 0 31.7 0 30 C2 29 2 29 8 29 C8 21.41 8 13.82 8 6 C5.36 6 2.72 6 0 6 C0 4.02 0 2.04 0 0 Z " fill="#AEAEAE" transform="translate(413,131)"/>
<path d="M0 0 C7.59 0 15.18 0 23 0 C23 1.98 23 3.96 23 6 C20.36 6 17.72 6 15 6 C15 13.92 15 21.84 15 30 C17.64 30 20.28 30 23 30 C23 31.98 23 33.96 23 36 C15.41 36 7.82 36 0 36 C0 34.02 0 32.04 0 30 C2.97 30 5.94 30 9 30 C9 22.08 9 14.16 9 6 C6.03 6 3.06 6 0 6 C0 4.02 0 2.04 0 0 Z " fill="#ADADAD" transform="translate(353,75)"/>
<path d="M0 0 C7.59 0 15.18 0 23 0 C23 1.98 23 3.96 23 6 C20.03 6 17.06 6 14 6 C14 13.59 14 21.18 14 29 C16.97 29.33 19.94 29.66 23 30 C23 31.65 23 33.3 23 35 C15.41 35 7.82 35 0 35 C0 33.35 0 31.7 0 30 C3.96 29.505 3.96 29.505 8 29 C8 21.41 8 13.82 8 6 C5.36 6 2.72 6 0 6 C0 4.02 0 2.04 0 0 Z " fill="#AFAFAF" transform="translate(203,131)"/>
<path d="M0 0 C7.59 0 15.18 0 23 0 C23 1.98 23 3.96 23 6 C20.03 6 17.06 6 14 6 C14 13.92 14 21.84 14 30 C16.97 30 19.94 30 23 30 C23 31.98 23 33.96 23 36 C15.41 36 7.82 36 0 36 C0 34.02 0 32.04 0 30 C2.97 30 5.94 30 9 30 C9 22.08 9 14.16 9 6 C6.03 6 3.06 6 0 6 C0 4.02 0 2.04 0 0 Z " fill="#AFAFAF" transform="translate(293,75)"/>
<path d="M0 0 C8.91 0 17.82 0 27 0 C27 1.98 27 3.96 27 6 C23.37 6 19.74 6 16 6 C16 15.9 16 25.8 16 36 C14.35 36 12.7 36 11 36 C10 35 10 35 9.88647461 32.22436523 C9.89171143 31.01466064 9.89694824 29.80495605 9.90234375 28.55859375 C9.90556641 27.25341797 9.90878906 25.94824219 9.91210938 24.60351562 C9.92046599 23.2148431 9.92893095 21.82617123 9.9375 20.4375 C9.94251334 19.04492344 9.94707653 17.65234519 9.95117188 16.25976562 C9.96300566 12.8398013 9.9794912 9.41992156 10 6 C6.7 6 3.4 6 0 6 C0 4.02 0 2.04 0 0 Z " fill="#B0B0B0" transform="translate(231,75)"/>
<path d="M0 0 C1.98 0 3.96 0 6 0 C6 11.55 6 23.1 6 35 C3.36 35 0.72 35 -2 35 C-4.39073445 31.17482487 -4.55966552 27.40334476 -5 23 C-4.01 23 -3.02 23 -2 23 C-0.79729036 20.59458071 -0.79683337 18.89633409 -0.68359375 16.2109375 C-0.64169922 15.26992187 -0.59980469 14.32890625 -0.55664062 13.359375 C-0.51732422 12.37453125 -0.47800781 11.3896875 -0.4375 10.375 C-0.39431641 9.38242188 -0.35113281 8.38984375 -0.30664062 7.3671875 C-0.20038931 4.91160162 -0.09835036 2.45591297 0 0 Z " fill="#A5A5A5" transform="translate(250,131)"/>
<path d="M0 0 C6.93 0.495 6.93 0.495 14 1 C14 2.32 14 3.64 14 5 C11.36 5 8.72 5 6 5 C6 8.3 6 11.6 6 15 C7.32 15.33 8.64 15.66 10 16 C9.67 17.32 9.34 18.64 9 20 C8.01 20 7.02 20 6 20 C6 24.95 6 29.9 6 35 C4.02 35 2.04 35 0 35 C0 23.45 0 11.9 0 0 Z " fill="#AEAEAE" transform="translate(204,20)"/>
<path d="M0 0 C2.64 0 5.28 0 8 0 C10.09065618 3.39731629 10.42098999 6.04269405 10 10 C9.50910889 10.45028564 9.01821777 10.90057129 8.51245117 11.36450195 C6.44308632 13.60222191 6.57536941 15.09221838 6.48828125 18.10546875 C6.43510742 19.57983398 6.43510742 19.57983398 6.38085938 21.08398438 C6.34702148 22.62022461 6.34702148 22.62022461 6.3125 24.1875 C6.27833984 25.22326172 6.24417969 26.25902344 6.20898438 27.32617188 C6.12647358 29.8840066 6.05733428 32.44149723 6 35 C4.02 35 2.04 35 0 35 C0 23.45 0 11.9 0 0 Z " fill="#A5A5A5" transform="translate(323,131)"/>
<path d="M0 0 C2.31 0 4.62 0 7 0 C6.67 1.32 6.34 2.64 6 4 C5.34 4 4.68 4 4 4 C4.226875 4.598125 4.45375 5.19625 4.6875 5.8125 C4.790625 6.534375 4.89375 7.25625 5 8 C4.52433594 8.44601563 4.04867187 8.89203125 3.55859375 9.3515625 C1.57117809 11.45354097 1.55334346 12.71369783 1.375 15.5625 C1.08 19.84 1.08 19.84 0 22 C2.31 22 4.62 22 7 22 C7 22.33 7 22.66 7 23 C4.69 23.33 2.38 23.66 0 24 C0.33 24.66 0.66 25.32 1 26 C0.34 26 -0.32 26 -1 26 C-1 26.66 -1 27.32 -1 28 C0.98 28 2.96 28 5 28 C5 28.33 5 28.66 5 29 C2.36 29 -0.28 29 -3 29 C-2.938125 30.175625 -2.938125 30.175625 -2.875 31.375 C-3 34 -3 34 -5 36 C-7.625 36.125 -7.625 36.125 -10 36 C-11.41006698 33.17986605 -10.36558369 31.46067244 -9.43617249 28.58956909 C-9.0675132 27.4894902 -9.0675132 27.4894902 -8.69140625 26.3671875 C-8.44583481 25.61535187 -8.20026337 24.86351624 -7.94725037 24.08889771 C-7.15928305 21.68191855 -6.36102765 19.27849391 -5.5625 16.875 C-5.02731507 15.24631695 -4.49280111 13.61741325 -3.95898438 11.98828125 C-2.64710236 7.98958319 -1.32598204 3.99404349 0 0 Z " fill="#B4B4B4" transform="translate(211,75)"/>
<path d="M0 0 C2.5 0.125 2.5 0.125 3.5 1.125 C3.59935664 2.66540278 3.63080092 4.21030383 3.6328125 5.75390625 C3.63410156 6.70716797 3.63539063 7.66042969 3.63671875 8.64257812 C3.63285156 9.64740234 3.62898438 10.65222656 3.625 11.6875 C3.62886719 12.66525391 3.63273437 13.64300781 3.63671875 14.65039062 C3.61689388 29.44965919 3.61689388 29.44965919 0.5 34.125 C-0.82 33.795 -2.14 33.465 -3.5 33.125 C-3.52465392 28.58602295 -3.54283789 24.04708457 -3.55493164 19.50805664 C-3.5599714 17.96280234 -3.5668032 16.41755284 -3.57543945 14.87231445 C-3.58752076 12.65574971 -3.59323173 10.43924782 -3.59765625 8.22265625 C-3.60281754 7.5278566 -3.60797882 6.83305695 -3.61329651 6.11720276 C-3.61349277 4.4527067 -3.56189129 2.78834501 -3.5 1.125 C-2.5 0.125 -2.5 0.125 0 0 Z " fill="#A8A8A8" transform="translate(253.5,18.875)"/>
<path d="M0 0 C7.59 0 15.18 0 23 0 C23 1.98 23 3.96 23 6 C20.03 6 17.06 6 14 6 C14 13.59 14 21.18 14 29 C13.67 29 13.34 29 13 29 C13 21.74 13 14.48 13 7 C12.01 7 11.02 7 10 7 C10 12.94 10 18.88 10 25 C9.67 25 9.34 25 9 25 C9 18.73 9 12.46 9 6 C6.03 6 3.06 6 0 6 C0 4.02 0 2.04 0 0 Z " fill="#A6A6A6" transform="translate(293,75)"/>
<path d="M0 0 C2 0 4 0 6 0 C6 9.9 6 19.8 6 30 C4.35 30 2.7 30 1 30 C0 29 0 29 -0.11352539 26.22436523 C-0.10828857 25.01466064 -0.10305176 23.80495605 -0.09765625 22.55859375 C-0.09443359 21.25341797 -0.09121094 19.94824219 -0.08789062 18.60351562 C-0.07953401 17.2148431 -0.07106905 15.82617123 -0.0625 14.4375 C-0.05748666 13.04492344 -0.05292347 11.65234519 -0.04882812 10.25976562 C-0.03699434 6.8398013 -0.0205088 3.41992156 0 0 Z " fill="#B1B1B1" transform="translate(241,81)"/>
<path d="M0 0 C0.928125 0.2784375 0.928125 0.2784375 1.875 0.5625 C4.04160178 1.23686176 4.04160178 1.23686176 6 0 C6 9.24 6 18.48 6 28 C4.35 28 2.7 28 1 28 C1 20.74 1 13.48 1 6 C0.34 6 -0.32 6 -1 6 C-0.67 4.02 -0.34 2.04 0 0 Z " fill="#A7A7A7" transform="translate(280,27)"/>
<path d="M0 0 C0.99 0.33 1.98 0.66 3 1 C3 1.66 3 2.32 3 3 C3.66 3 4.32 3 5 3 C6.625 5.6875 6.625 5.6875 8 9 C7.1875 11.875 7.1875 11.875 6 14 C4.125 13.8125 4.125 13.8125 2 13 C1.28272222 11.35448038 0.61674772 9.68577711 0 8 C-3.44450737 5.70366176 -5.93812283 5.45983515 -10 5 C-8.68 4.67 -7.36 4.34 -6 4 C-6.66 2.68 -7.32 1.36 -8 0 C-5.11301479 -1.4434926 -3.10530768 -0.63373626 0 0 Z " fill="#B0B0B0" transform="translate(279,132)"/>
<path d="M0 0 C0.33 0 0.66 0 1 0 C5.7728833 15.19908467 5.7728833 15.19908467 7 21 C6 22 6 22 3.4375 22.0625 C2.633125 22.041875 1.82875 22.02125 1 22 C-0.4606285 19.35261084 -1 18.10551666 -1 15 C-1.66 14.67 -2.32 14.34 -3 14 C-2.34 13.67 -1.68 13.34 -1 13 C-1.20625 11.96875 -1.4125 10.9375 -1.625 9.875 C-2.01194403 5.8765784 -1.51883076 3.66306243 0 0 Z " fill="#B5B5B5" transform="translate(222,89)"/>
<path d="M0 0 C0.99 1.485 0.99 1.485 2 3 C2.66 3 3.32 3 4 3 C4.86809439 8.20173095 5.12515348 13.16978816 5.0625 18.4375 C5.05798828 19.16904297 5.05347656 19.90058594 5.04882812 20.65429688 C5.03718148 22.43623419 5.01925191 24.21812863 5 26 C3.35 26 1.7 26 0 26 C0 17.42 0 8.84 0 0 Z " fill="#A7A7A7" transform="translate(263,29)"/>
<path d="M0 0 C1.33998047 0.06960937 1.33998047 0.06960937 2.70703125 0.140625 C3.60808594 0.17671875 4.50914062 0.2128125 5.4375 0.25 C6.46810547 0.31960937 6.46810547 0.31960937 7.51953125 0.390625 C7.51953125 2.370625 7.51953125 4.350625 7.51953125 6.390625 C4.87953125 6.390625 2.23953125 6.390625 -0.48046875 6.390625 C-0.48046875 14.310625 -0.48046875 22.230625 -0.48046875 30.390625 C-0.81046875 30.390625 -1.14046875 30.390625 -1.48046875 30.390625 C-1.5055249 29.70436035 -1.53058105 29.0180957 -1.55639648 28.31103516 C-1.67218302 25.21236683 -1.7949876 22.11401577 -1.91796875 19.015625 C-1.95728516 17.93539062 -1.99660156 16.85515625 -2.03710938 15.7421875 C-2.07900391 14.7109375 -2.12089844 13.6796875 -2.1640625 12.6171875 C-2.20072021 11.66408691 -2.23737793 10.71098633 -2.27514648 9.72900391 C-2.3381034 7.36930151 -2.3381034 7.36930151 -3.48046875 5.390625 C-4.14046875 5.060625 -4.80046875 4.730625 -5.48046875 4.390625 C-3.17521711 0.50003419 -3.17521711 0.50003419 0 0 Z " fill="#B8B8B8" transform="translate(368.48046875,74.609375)"/>
<path d="M0 0 C2.91704415 1.04714406 3.88969775 1.81190563 5.484375 4.53125 C5.90203125 5.5109375 6.3196875 6.490625 6.75 7.5 C7.39195312 8.96953125 7.39195312 8.96953125 8.046875 10.46875 C9 13 9 13 9 15 C6.69 15 4.38 15 2 15 C-0.44697666 10.63799813 -1.50269348 6.97306516 -2 2 C-1.34 2 -0.68 2 0 2 C0 1.34 0 0.68 0 0 Z " fill="#AFAFAF" transform="translate(219,40)"/>
<path d="M0 0 C2.12472576 -0.05386629 4.24983652 -0.09273071 6.375 -0.125 C7.55835938 -0.14820312 8.74171875 -0.17140625 9.9609375 -0.1953125 C13 0 13 0 15 2 C14 5 14 5 12 6 C11.67 12.6 11.34 19.2 11 26 C10.67 26 10.34 26 10 26 C10 19.07 10 12.14 10 5 C7.03 5 4.06 5 1 5 C0.67 3.35 0.34 1.7 0 0 Z " fill="#A4A4A4" transform="translate(232,76)"/>
<path d="M0 0 C0.33 0 0.66 0 1 0 C0.855625 0.928125 0.71125 1.85625 0.5625 2.8125 C-0.16364963 7.85405316 -0.5687807 12.92629204 -1 18 C-1.99 17.34 -2.98 16.68 -4 16 C-4 16.99 -4 17.98 -4 19 C-4.99 19 -5.98 19 -7 19 C-7 14.71 -7 10.42 -7 6 C-6.01 6 -5.02 6 -4 6 C-3.71125 5.38125 -3.4225 4.7625 -3.125 4.125 C-2 2 -2 2 0 0 Z " fill="#A9A9A9" transform="translate(298,136)"/>
<path d="M0 0 C3.98002315 -0.31215868 6.3565648 -0.36368076 9.875 1.625 C12.39626084 4.44287976 12.74624791 6.27830274 13 10 C10.125 10.1875 10.125 10.1875 7 10 C6.34 9.01 5.68 8.02 5 7 C1.93443402 6.26656572 1.93443402 6.26656572 -1 6 C-0.01 5.34 0.98 4.68 2 4 C1.34 2.68 0.68 1.36 0 0 Z " fill="#B2B2B2" transform="translate(273,75)"/>
<path d="M0 0 C0.70133599 1.57725347 1.385583 3.16211333 2.0625 4.75 C2.44535156 5.63171875 2.82820312 6.5134375 3.22265625 7.421875 C4.04600008 10.15256309 3.9773992 11.36901347 3 14 C2.01 14 1.02 14 0 14 C0.33 15.32 0.66 16.64 1 18 C-2.01598607 16.49200696 -2.13739043 14.32266466 -3.1875 11.1875 C-3.55230469 10.12917969 -3.91710937 9.07085937 -4.29296875 7.98046875 C-4.9803884 5.08267211 -5.18809112 3.69677825 -4 1 C-2 0 -2 0 0 0 Z " fill="#B4B4B4" transform="translate(245,140)"/>
<path d="M0 0 C2.76223278 2.76223278 2.57856291 5.20706617 3 9 C3.99 8.67 4.98 8.34 6 8 C4.87548273 10.9719385 3.77706209 13.33440687 2 16 C1.01 16 0.02 16 -1 16 C-2.17571451 12.32589215 -2.07366746 8.83070817 -2 5 C-2.66 5 -3.32 5 -4 5 C-2.25 1.125 -2.25 1.125 0 0 Z " fill="#ABABAB" transform="translate(271,24)"/>
<path d="M0 0 C0.66 0 1.32 0 2 0 C1.91621094 0.75925781 1.83242187 1.51851563 1.74609375 2.30078125 C1.64425781 3.29464844 1.54242188 4.28851563 1.4375 5.3125 C1.33308594 6.29863281 1.22867188 7.28476563 1.12109375 8.30078125 C0.83397473 11.09930347 0.83397473 11.09930347 2 14 C-1.96 14 -5.92 14 -10 14 C-10.33 12.68 -10.66 11.36 -11 10 C-8.04335481 8.5216774 -5.25770263 8.93967217 -2 9 C-2 7.35 -2 5.7 -2 4 C-1.01 3.67 -0.02 3.34 1 3 C0.67 2.01 0.34 1.02 0 0 Z " fill="#A6A6A6" transform="translate(220,89)"/>
<path d="M0 0 C1.65 0.33 3.3 0.66 5 1 C5.33 2.65 5.66 4.3 6 6 C5.030625 6.28875 4.06125 6.5775 3.0625 6.875 C-0.10664203 7.64214682 -0.10664203 7.64214682 -1 10 C-1.99 10 -2.98 10 -4 10 C-3.25 4.25 -3.25 4.25 -1 2 C-0.67 1.34 -0.34 0.68 0 0 Z " fill="#A7A7A7" transform="translate(451,137)"/>
<path d="M0 0 C3.96 0 7.92 0 12 0 C9.10782241 4.69978858 9.10782241 4.69978858 5.953125 5.5546875 C3.97669255 5.78597215 1.98743631 5.90062818 0 6 C0 4.02 0 2.04 0 0 Z " fill="#ABABAB" transform="translate(293,75)"/>
<path d="M0 0 C3.79588866 0.54226981 5.47211993 2.20127563 8 5 C7.67 5.66 7.34 6.32 7 7 C6.01 7 5.02 7 4 7 C3.01 8.485 3.01 8.485 2 10 C1.401875 9.38125 0.80375 8.7625 0.1875 8.125 C-2.00811144 5.86323046 -2.00811144 5.86323046 -5 4 C-3.35 3.67 -1.7 3.34 0 3 C0 2.01 0 1.02 0 0 Z " fill="#B4B4B4" transform="translate(308,131)"/>
<path d="M0 0 C1.65 0 3.3 0 5 0 C5.28875 0.804375 5.5775 1.60875 5.875 2.4375 C6.73262568 5.1326468 6.73262568 5.1326468 9 6 C7.68 6.33 6.36 6.66 5 7 C5.33 8.32 5.66 9.64 6 11 C5.34 11 4.68 11 4 11 C4 10.34 4 9.68 4 9 C3.34 9 2.68 9 2 9 C0.14223235 5.86501708 -0.20140476 3.62528568 0 0 Z " fill="#AFAFAF" transform="translate(382,154)"/>
<path d="M0 0 C10.55808656 -0.18451025 10.55808656 -0.18451025 15 1 C15.33 2.98 15.66 4.96 16 7 C13.47946405 8.26026798 12.1457902 7.91874445 9.375 7.5625 C8.14910156 7.40974609 8.14910156 7.40974609 6.8984375 7.25390625 C5.95871094 7.12822266 5.95871094 7.12822266 5 7 C5 6.67 5 6.34 5 6 C8.465 5.505 8.465 5.505 12 5 C12 4.34 12 3.68 12 3 C8.04 2.67 4.08 2.34 0 2 C0 1.34 0 0.68 0 0 Z " fill="#C8C8C8" transform="translate(205,19)"/>
<path d="M0 0 C1.98 0 3.96 0 6 0 C6.33 1.32 6.66 2.64 7 4 C7.66 4 8.32 4 9 4 C9 4.66 9 5.32 9 6 C8.21625 5.95875 7.4325 5.9175 6.625 5.875 C3.83883881 5.71271266 3.83883881 5.71271266 2 8 C0.74335022 5.09399739 0 3.20395416 0 0 Z " fill="#BCBCBC" transform="translate(262,99)"/>
<path d="M0 0 C0.042721 1.66611905 0.04063832 3.33382885 0 5 C-1 6 -1 6 -4.5625 6.0625 C-5.696875 6.041875 -6.83125 6.02125 -8 6 C-7.625 3.5625 -7.625 3.5625 -7 1 C-4.53721199 -0.231394 -2.7204945 -0.07159196 0 0 Z " fill="#B2B2B2" transform="translate(436,131)"/>
<path d="M0 0 C1.98 0.495 1.98 0.495 4 1 C4 1.66 4 2.32 4 3 C4.66 3.33 5.32 3.66 6 4 C5.67 5.32 5.34 6.64 5 8 C3.02 8 1.04 8 -1 8 C-1.125 2.25 -1.125 2.25 0 0 Z " fill="#B4B4B4" transform="translate(292,47)"/>
<path d="M0 0 C0.33 0 0.66 0 1 0 C2.125 5.625 2.125 5.625 1 9 C-1.0625 10.1875 -1.0625 10.1875 -3 11 C-3.66 8.69 -4.32 6.38 -5 4 C-3.35 3.67 -1.7 3.34 0 3 C0 2.01 0 1.02 0 0 Z " fill="#B5B5B5" transform="translate(220,83)"/>
<path d="M0 0 C1.98 0 3.96 0 6 0 C6 1.98 6 3.96 6 6 C3.69 5.34 1.38 4.68 -1 4 C-0.67 2.68 -0.34 1.36 0 0 Z " fill="#ABABAB" transform="translate(370,75)"/>
<path d="M0 0 C-1.625 2.5 -1.625 2.5 -4 5 C-7.25 5.3125 -7.25 5.3125 -10 5 C-8.68 4.67 -7.36 4.34 -6 4 C-6.66 2.68 -7.32 1.36 -8 0 C-5.13822943 -1.43088528 -3.06624227 -0.59991697 0 0 Z " fill="#BABABA" transform="translate(279,132)"/>
<path d="M0 0 C1.98 0 3.96 0 6 0 C6 1.65 6 3.3 6 5 C4.02 5 2.04 5 0 5 C0 3.35 0 1.7 0 0 Z " fill="#A8A8A8" transform="translate(353,105)"/>
<path d="M0 0 C0.66 0.99 1.32 1.98 2 3 C0.625 5 0.625 5 -1 7 C-1.66 7 -2.32 7 -3 7 C-3 5.68 -3 4.36 -3 3 C-3.66 2.67 -4.32 2.34 -5 2 C-3.35 1.34 -1.7 0.68 0 0 Z " fill="#A7A7A7" transform="translate(279,104)"/>
<path d="M0 0 C0.33 0.66 0.66 1.32 1 2 C1.66 2.33 2.32 2.66 3 3 C1.68 3.33 0.36 3.66 -1 4 C-0.67 5.32 -0.34 6.64 0 8 C-0.66 8 -1.32 8 -2 8 C-2 7.34 -2 6.68 -2 6 C-2.66 6 -3.32 6 -4 6 C-4 4.68 -4 3.36 -4 2 C-2.68 1.34 -1.36 0.68 0 0 Z " fill="#BBBBBB" transform="translate(388,157)"/>
<path d="M0 0 C0.99 0.33 1.98 0.66 3 1 C2.34 1 1.68 1 1 1 C1.33 3.31 1.66 5.62 2 8 C-0.31 7.01 -2.62 6.02 -5 5 C-2 3 -2 3 0 3 C0 2.01 0 1.02 0 0 Z " fill="#BEBEBE" transform="translate(308,131)"/>
<path d="M0 0 C1.98 0 3.96 0 6 0 C4.515 1.485 4.515 1.485 3 3 C3.99 3.66 4.98 4.32 6 5 C4.02 5 2.04 5 0 5 C0 3.35 0 1.7 0 0 Z " fill="#A6A6A6" transform="translate(203,161)"/>
<path d="M0 0 C1.98 0 3.96 0 6 0 C6 0.66 6 1.32 6 2 C5.34 2 4.68 2 4 2 C4 2.66 4 3.32 4 4 C3.01 4.33 2.02 4.66 1 5 C0.67 3.35 0.34 1.7 0 0 Z " fill="#ADADAD" transform="translate(262,99)"/>
<path d="M0 0 C1.2065625 0.0309375 1.2065625 0.0309375 2.4375 0.0625 C1.20815985 3.75052044 -0.50109378 4.78606973 -3.5625 7.0625 C-3.60504356 5.06295254 -3.60330783 3.06208364 -3.5625 1.0625 C-2.5625 0.0625 -2.5625 0.0625 0 0 Z " fill="#D3D3D3" transform="translate(253.5625,18.9375)"/>
<path d="M0 0 C1.98 0 3.96 0 6 0 C6 1.32 6 2.64 6 4 C3.69 4 1.38 4 -1 4 C-0.01 3.67 0.98 3.34 2 3 C2 2.34 2 1.68 2 1 C1.34 0.67 0.68 0.34 0 0 Z " fill="#A4A4A4" transform="translate(212,21)"/>
<path d="M0 0 C0.99 0.99 1.98 1.98 3 3 C1.35 4.65 -0.3 6.3 -2 8 C-1.125 2.25 -1.125 2.25 0 0 Z " fill="#9E9E9E" transform="translate(214,82)"/>
</svg>
