<?xml version="1.0" encoding="UTF-8"?>
<svg version="1.1" xmlns="http://www.w3.org/2000/svg" width="3000" height="1023">
<path d="M0 0 C337.59 0 675.18 0 1023 0 C1023 337.59 1023 675.18 1023 1023 C685.41 1023 347.82 1023 0 1023 C0 685.41 0 347.82 0 0 Z M60 60 C60 357.99 60 655.98 60 963 C219.39 963 378.78 963 543 963 C540.03523081 950.95260278 540.03523081 950.95260278 536.72363281 939.03344727 C536.52697871 938.36937426 536.33032461 937.70530125 536.1277113 937.02110481 C535.48941526 934.86856258 534.84631592 932.71749038 534.203125 930.56640625 C533.73659416 928.9965771 533.27038175 927.4266533 532.80445862 925.85664368 C531.80983137 922.5074099 530.81309002 919.15881588 529.81460571 915.81072998 C528.21628225 910.45118282 526.62280826 905.09020102 525.0300293 899.72900391 C523.08141788 893.17117593 521.13172798 886.61367061 519.18058681 880.05659485 C514.20958276 863.35035133 509.25815823 846.63832012 504.30847168 829.92575073 C502.80407367 824.84628358 501.2990526 819.76700116 499.79394531 814.68774414 C493.14123089 792.23616852 486.49712763 769.78205482 479.85736847 747.3266449 C472.89302552 723.77367388 465.9209879 700.22299218 458.94285583 676.67410278 C458.18970268 674.13243338 457.43658245 671.59075423 456.68347168 669.04907227 C452.05480429 653.42782613 447.42566923 637.80671885 442.79345703 622.18652344 C442.52706484 621.28820486 442.26067265 620.38988628 441.98620796 619.46434593 C440.64625503 614.94584876 439.30619145 610.42738445 437.9659729 605.90896606 C435.37755297 597.18145979 432.79170742 588.45320498 430.21191406 579.72314453 C429.24163541 576.44040043 428.27123018 573.15769377 427.30078125 569.875 C427.06764599 569.0861932 426.83451073 568.2973864 426.59431076 567.48467636 C424.01017098 558.7440649 421.40831187 550.00960257 418.75540161 541.28955078 C417.56695492 537.38184971 416.3892278 533.47096773 415.2130127 529.55957031 C414.47280479 527.11652305 413.71506317 524.6794438 412.95605469 522.2421875 C412.53087872 520.82843205 412.10664563 519.41439251 411.68359375 518 C411.32837646 516.845 410.97315918 515.69 410.60717773 514.5 C409.0452926 505.49670875 412.25073412 497.10355158 414.890625 488.5625 C415.30263293 487.20836586 415.71387397 485.85399819 416.12442017 484.49942017 C417.01702696 481.55923278 417.91437317 478.62054985 418.81536865 475.68292236 C420.28923785 470.87631653 421.75146562 466.06621742 423.21142578 461.25537109 C423.46412294 460.42277708 423.71682011 459.59018307 423.97717476 458.73235893 C424.4978797 457.01667715 425.01855305 455.30098578 425.53919601 453.58528519 C426.34682546 450.92507418 427.15544789 448.26516662 427.96426392 445.60531616 C434.03252647 425.64180301 440.001952 405.64888584 445.97026443 385.65531158 C447.49886246 380.53544179 449.0286203 375.4159186 450.55834961 370.29638672 C452.44508647 363.98191185 454.33178508 357.6674256 456.21806335 351.35281372 C462.7444773 329.50485806 469.2779925 307.65902752 475.81204224 285.81335449 C477.81224313 279.12593396 479.81226747 272.43846065 481.81225586 265.75097656 C488.36411535 243.84323201 494.91653812 221.93565604 501.46963692 200.02828217 C508.80039963 175.52108012 516.1297114 151.01344469 523.45701122 126.50520706 C525.31877946 120.27809716 527.18099186 114.05112024 529.04345703 107.82421875 C531.16510535 100.73065036 533.28537334 93.63667104 535.40432739 86.54229736 C536.12543285 84.12870399 536.84699844 81.71524804 537.56906128 79.30194092 C538.51605826 76.13656661 539.46141606 72.97070799 540.40625 69.8046875 C540.67635391 68.90327026 540.94645782 68.00185303 541.2247467 67.07312012 C542.45475545 63.59207688 542.45475545 63.59207688 543 60 C383.61 60 224.22 60 60 60 Z M607 60 C604.66925136 66.12310123 604.66925136 66.12310123 602.63972473 72.30415344 C602.41267349 73.06056374 602.18562225 73.81697403 601.95169067 74.59630585 C601.59432327 75.80220745 601.59432327 75.80220745 601.22973633 77.0324707 C600.96786026 77.90782219 600.70598419 78.78317368 600.43617249 79.68505096 C599.56548021 82.5978451 598.69876717 85.51180763 597.83203125 88.42578125 C597.20750002 90.5178715 596.58271216 92.60988515 595.95768738 94.701828 C594.61348344 99.20275579 593.27102532 103.7041992 591.92993164 108.20605469 C589.78221934 115.41553808 587.6306679 122.62387221 585.47851562 129.83203125 C582.85292537 138.62672303 580.22821033 147.42167503 577.60464287 156.21697044 C573.03815902 171.52539681 568.46492149 186.83179324 563.88671875 202.13671875 C563.55992945 203.22918915 563.23314014 204.32165955 562.89644814 205.44723511 C561.25394256 210.93806228 559.61130429 216.42884975 557.96859741 221.9196167 C554.98847268 231.88090121 552.00937144 241.84249182 549.03025246 251.80407715 C548.03212448 255.14160716 547.03396996 258.47912923 546.03581238 261.81665039 C541.95486371 275.46222334 537.87473087 289.10804003 533.79512024 302.75401306 C531.3833066 310.82132525 528.97125699 318.88856688 526.55915356 326.95579243 C524.86929952 332.6075278 523.17957407 338.25930156 521.49014282 343.91116333 C514.88661517 366.00246591 508.27850227 388.09233175 501.63596725 410.17194176 C500.77363054 413.03852775 499.91161721 415.90521078 499.04971313 418.77192688 C498.49408641 420.61984458 497.93845296 422.46776026 497.3828125 424.31567383 C497.11360174 425.21101239 496.84439098 426.10635096 496.56702232 427.02882099 C495.01420967 432.19205684 493.45879397 437.35449911 491.90126324 442.51631355 C490.95727702 445.64667481 490.01553208 448.77770719 489.07435036 451.90891266 C488.64669129 453.32987715 488.21806767 454.75055181 487.7883358 456.17089081 C487.20159562 458.1104597 486.61867674 460.0511833 486.03588867 461.99194336 C485.71271164 463.06375351 485.38953461 464.13556366 485.05656433 465.23985291 C483.58913159 470.46221637 482.31566219 475.73735124 481 481 C640.06 481 799.12 481 963 481 C963 342.07 963 203.14 963 60 C845.52 60 728.04 60 607 60 Z M482 541 C491.56175721 574.03430131 491.56175721 574.03430131 501.2800293 607.02197266 C501.7578606 608.63095588 502.23567361 610.23994453 502.71347046 611.84893799 C502.95443325 612.66023415 503.19539604 613.4715303 503.44366074 614.30741119 C504.73401769 618.65305266 506.02282582 622.99915345 507.31176758 627.34521484 C509.1960348 633.69819632 511.08068599 640.05106362 512.96589184 646.40376663 C518.12733922 663.79672495 523.28167505 681.19178958 528.43552017 698.5870018 C529.18982705 701.13285401 529.94419236 703.67868891 530.69857788 706.22451782 C538.0674203 731.09225459 545.42810807 755.9623929 552.78155518 780.83468628 C557.82866498 797.90594708 562.88060859 814.97576023 567.94140625 832.04296875 C568.44985917 833.75781621 568.95830744 835.47266505 569.4667511 837.18751526 C569.71917792 838.03887904 569.97160475 838.89024282 570.23168087 839.76740551 C570.74289542 841.49158791 571.25410872 843.21577067 571.76532078 844.9399538 C573.03509938 849.22254407 574.30495916 853.50511023 575.57498169 857.78762817 C581.04771369 876.24284859 586.50715487 894.70183603 591.9296875 913.171875 C592.16592016 913.97631861 592.40215282 914.78076221 592.64554405 915.6095829 C594.89755976 923.27842317 597.1483356 930.94761988 599.39299774 938.6186161 C600.19697936 941.36501347 601.00240275 944.1109866 601.80815506 946.85686493 C602.35682286 948.72865826 602.90346002 950.60104644 603.45004272 952.47344971 C603.77388947 953.5765448 604.09773621 954.67963989 604.43139648 955.81616211 C604.71208481 956.77542099 604.99277313 957.73467987 605.28196716 958.7230072 C605.93412512 960.9995139 605.93412512 960.9995139 607 963 C724.48 963 841.96 963 963 963 C963 823.74 963 684.48 963 541 C804.27 541 645.54 541 482 541 Z " fill="#AF4324" transform="translate(0,0)"/>
<path d="M0 0 C15.51 0 31.02 0 47 0 C53.89292284 24.12522994 53.89292284 24.12522994 55.88427734 31.55395508 C56.1192392 32.42508942 56.35420105 33.29622375 56.59628296 34.1937561 C57.34433127 36.96861391 58.09017685 39.74405785 58.8359375 42.51953125 C59.36530874 44.48495674 59.89482214 46.45034395 60.42446899 48.41569519 C61.79687742 53.50974392 63.16739594 58.60429912 64.53747559 63.69897461 C65.94438028 68.92919048 67.35313511 74.15890797 68.76171875 79.38867188 C71.50958917 89.59197018 74.2554566 99.7958063 77 110 C83.76963956 85.77265791 90.41160302 61.51307697 96.95788574 37.2244873 C98.30015759 32.24567805 99.64447579 27.26742092 100.98841858 22.2890625 C102.99377755 14.85977815 104.99666819 7.42983256 107 0 C122.51 0 138.02 0 154 0 C154 73.92 154 147.84 154 224 C144.1 224 134.2 224 124 224 C123.67 162.95 123.34 101.9 123 39 C107.95621539 92.98786417 107.95621539 92.98786417 93 147 C82.77 147 72.54 147 62 147 C58.62497134 136.87491403 58.62497134 136.87491403 57.62094116 133.26213074 C57.39108017 132.43936646 57.16121918 131.61660217 56.9243927 130.76890564 C56.68427963 129.90052567 56.44416656 129.03214569 56.19677734 128.13745117 C55.93459915 127.19646576 55.67242096 126.25548035 55.40229797 125.28598022 C54.54463696 122.2055856 53.69024228 119.1242957 52.8359375 116.04296875 C52.23746011 113.89059872 51.63879383 111.73828121 51.03994751 109.58601379 C49.78956857 105.09035978 48.54066482 100.59429972 47.29296875 96.09790039 C45.69318884 90.33269238 44.09095701 84.56816967 42.48778343 78.80390453 C40.95722925 73.30047383 39.4277383 67.79674785 37.8984375 62.29296875 C37.60668011 61.2431954 37.31492271 60.19342205 37.01432419 59.11183739 C36.19044819 56.14657739 35.36731114 53.18111337 34.54443359 50.21557617 C34.1781913 48.89782448 34.1781913 48.89782448 33.80455017 47.55345154 C33.58032883 46.74478638 33.35610748 45.93612122 33.12509155 45.10295105 C32.93080252 44.40301623 32.73651348 43.70308142 32.5363369 42.98193645 C31.99857184 40.99472251 31.49930602 38.99722408 31 37 C30.67 98.71 30.34 160.42 30 224 C20.1 224 10.2 224 0 224 C0 150.08 0 76.16 0 0 Z " fill="#AF4324" transform="translate(1645,29)"/>
<path d="M0 0 C14.85 0 29.7 0 45 0 C50.62517561 13.50042147 50.62517561 13.50042147 52.62109375 18.80761719 C53.07427475 20.00952698 53.52745575 21.21143677 53.99436951 22.44976807 C54.47545993 23.73211944 54.95650197 25.01448897 55.4375 26.296875 C55.95551722 27.67322312 56.47371577 29.04950301 56.99208069 30.42572021 C58.37656358 34.10304494 59.75841573 37.78135292 61.13972855 41.45986938 C62.59349396 45.32994165 64.04974406 49.1990789 65.50561523 53.06835938 C73.47370545 74.24959952 81.42589681 95.43687673 89.35742188 116.63183594 C97.52365176 138.43961778 105.77033811 160.21560088 114 182 C114.33 121.94 114.66 61.88 115 0 C124.9 0 134.8 0 145 0 C145 73.59 145 147.18 145 223 C130.15 223 115.3 223 100 223 C98.42476562 218.74738281 96.84953125 214.49476563 95.2265625 210.11328125 C82.96783152 177.04033828 70.6516689 143.99028807 58.1771431 110.99805641 C49.36856614 87.69524901 40.68802707 64.34907276 32 41 C31.67 101.06 31.34 161.12 31 223 C20.77 223 10.54 223 0 223 C0 149.41 0 75.82 0 0 Z " fill="#AF4324" transform="translate(1451,766)"/>
<path d="M0 0 C14.85 0 29.7 0 45 0 C56.04881543 29.2681375 67.09192559 58.53842489 78.125 87.8125 C78.40028156 88.54288357 78.67556313 89.27326714 78.95918655 90.02578354 C87.15641709 111.77539553 95.33750935 133.53095969 103.48291016 155.30004883 C103.82340897 156.20946732 104.16390778 157.1188858 104.51472473 158.05586243 C105.12793683 159.69376336 105.7407017 161.33183188 106.35282898 162.97013855 C108.85934842 169.66401239 111.43371356 176.32765526 114 183 C114.33 122.61 114.66 62.22 115 0 C124.9 0 134.8 0 145 0 C145 73.59 145 147.18 145 223 C130.15 223 115.3 223 100 223 C91.65334674 201.2256255 83.37668378 179.4285475 75.20359421 157.58862686 C73.7754119 153.77317331 72.34577467 149.95826497 70.91625977 146.14331055 C68.51375444 139.73133261 66.11187211 133.31912169 63.71044922 126.90673828 C58.36055328 112.62155903 53.00719488 98.3376776 47.65227127 84.05438232 C45.85736207 79.26669579 44.06303865 74.4787903 42.26920795 69.69069958 C41.15801827 66.72502298 40.04637581 63.75951626 38.93461418 60.79405403 C38.41953525 59.41987266 37.90464415 58.04562087 37.38995552 56.67129326 C36.68617899 54.79214616 35.9816573 52.91327818 35.27709961 51.03442383 C34.68643959 49.45822014 34.68643959 49.45822014 34.08384705 47.85017395 C33.08456141 45.22236968 32.04412491 42.61031229 31 40 C30.67 100.39 30.34 160.78 30 223 C20.1 223 10.2 223 0 223 C0 149.41 0 75.82 0 0 Z " fill="#AF4324" transform="translate(2046,766)"/>
<path d="M0 0 C107.11057692 0 107.11057692 0 127.77734375 19.5859375 C139.30215297 32.10321711 142.5811141 49.57251326 142.1875 66.12890625 C141.04620477 83.60498943 137.36429371 99.20527901 124.4375 111.75 C118.67998539 116.66603171 109.75447039 123 102 123 C102.41660889 123.85303711 102.83321777 124.70607422 103.26245117 125.58496094 C111.00078136 141.44024581 118.6682245 157.31699841 126.0390625 173.34716797 C129.05780378 179.88746197 132.13985767 186.39077465 135.29296875 192.8671875 C135.65830719 193.61768372 136.02364563 194.36817993 136.40005493 195.14141846 C138.1924128 198.81889619 139.99107313 202.49316882 141.796875 206.1640625 C142.45185668 207.50258764 143.10680618 208.84112854 143.76171875 210.1796875 C144.33881592 211.35257324 144.91591309 212.52545898 145.51049805 213.73388672 C147 217 147 217 149 223 C137.45 223 125.9 223 114 223 C106.43844957 206.89669816 98.87951742 190.79436694 91.44067383 174.6340332 C88.79531427 168.88774177 86.14132019 163.1456534 83.47265625 157.41015625 C83.17685669 156.77421539 82.88105713 156.13827454 82.57629395 155.48306274 C81.14382169 152.40377772 79.71019368 149.32504311 78.27490234 146.24707031 C77.76008301 145.14073242 77.24526367 144.03439453 76.71484375 142.89453125 C76.26230225 141.92362549 75.80976074 140.95271973 75.34350586 139.95239258 C73.84429243 136.65782815 72.42584616 133.32697436 71 130 C57.8 129.67 44.6 129.34 31 129 C31 160.02 31 191.04 31 223 C20.77 223 10.54 223 0 223 C0 149.41 0 75.82 0 0 Z M31 28 C31 52.09 31 76.18 31 101 C37.290625 101.04125 43.58125 101.0825 50.0625 101.125 C52.99008179 101.15231201 52.99008179 101.15231201 55.97680664 101.18017578 C80.96233929 101.68312047 80.96233929 101.68312047 102.50390625 90.80859375 C109.9273023 81.83461889 111.40785209 70.63560693 110.875 59.3125 C109.85789723 49.71937159 106.64759094 41.2205948 99 35 C84.57795078 26.46405821 66.70763474 27.72830276 50.5625 27.875 C44.106875 27.91625 37.65125 27.9575 31 28 Z " fill="#AF4324" transform="translate(2052,398)"/>
<path d="M0 0 C103.77440347 0 103.77440347 0 124 18 C124.62648438 18.52207031 125.25296875 19.04414062 125.8984375 19.58203125 C136.10783485 28.74373935 140.27989342 43.6635445 141.1262207 56.98706055 C141.83521683 76.08494044 139.48793551 95.38336695 126 110 C120.20286578 116.09828405 113.58239306 119.5012672 106 123 C104.66504921 123.6634219 103.33140853 124.32949755 102 125 C102.47606689 126.00224609 102.95213379 127.00449219 103.44262695 128.03710938 C103.76240509 128.7103273 104.08218323 129.38354523 104.41165161 130.0771637 C105.14453895 131.62008276 105.87742886 133.1630006 106.61032104 134.70591736 C108.70226867 139.10998776 110.79416792 143.51408112 112.88598633 147.91821289 C116.89988981 156.36899874 120.91402722 164.81967278 124.9299469 173.26950073 C126.61266676 176.81012564 128.29515571 180.35086025 129.97763062 183.89160156 C130.77131903 185.56174061 131.56511815 187.23182705 132.35903931 188.90185547 C134.19636569 192.76675391 136.03233976 196.63227794 137.86474609 200.49951172 C139.34535852 203.62416468 140.83409025 206.74481204 142.32666016 209.86376953 C143.06814065 211.42084759 143.8095182 212.97797467 144.55078125 214.53515625 C144.8984404 215.2577916 145.24609955 215.98042694 145.60429382 216.72496033 C148 221.77342303 148 221.77342303 148 224 C136.78 224 125.56 224 114 224 C108.42805841 212.94356882 103.01928021 201.82829158 97.75 190.625 C97.00605612 189.04661484 96.26207775 187.46824594 95.51806641 185.88989258 C90.19237696 174.58141994 84.9263457 163.24649322 79.7109375 151.88671875 C76.49930299 144.91275159 73.24689065 137.95762282 70 131 C56.8 130.67 43.6 130.34 30 130 C30 161.02 30 192.04 30 224 C20.1 224 10.2 224 0 224 C0 150.08 0 76.16 0 0 Z M30 29 C30 53.09 30 77.18 30 102 C38.600625 102.061875 38.600625 102.061875 47.375 102.125 C49.14278809 102.14320801 50.91057617 102.16141602 52.73193359 102.18017578 C60.83283142 102.22850073 68.81751655 101.98378841 76.875 101.1015625 C77.61044037 101.02148956 78.34588074 100.94141663 79.10360718 100.85891724 C88.23194262 99.75059876 96.41864273 96.58135727 103 90 C109.81492717 80.96545278 110.87823911 69.99889937 110 59 C108.69282893 50.24524921 106.03465478 42.40532293 99.21875 36.44140625 C88.89805253 29.31420328 75.70518317 28.83418742 63.59375 28.90234375 C62.7368457 28.90335083 61.87994141 28.90435791 60.99707031 28.90539551 C57.83136637 28.91058197 54.66568168 28.92454281 51.5 28.9375 C44.405 28.958125 37.31 28.97875 30 29 Z " fill="#AF4324" transform="translate(1260,29)"/>
<path d="M0 0 C96.50755287 0 96.50755287 0 126.734375 28.5859375 C148.46202696 51.03784453 154.4572328 83.79645261 154.15234375 113.98046875 C153.18769508 145.06447836 146.52760116 173.40812609 124 196 C123.29230469 196.73089844 122.58460937 197.46179688 121.85546875 198.21484375 C90.50011831 228.49104255 38.27562186 223 0 223 C0 149.41 0 75.82 0 0 Z M31 28 C31 83.11 31 138.22 31 195 C57.18831035 195 83.52134636 193.70852274 103.75 174.8125 C120.77432869 156.78495195 123.90639431 130.04910571 123.28515625 106.2734375 C122.26958796 83.45502034 117.43169845 60.1098635 100 44 C80.08590133 28.45063528 55.16433249 28 31 28 Z " fill="#AF4324" transform="translate(1651,766)"/>
<path d="M0 0 C24.76981497 19.17663094 33.33109376 48.53357531 37.35205078 78.31591797 C41.73126555 116.24038789 37.39751276 159.61020549 14.03515625 190.96875 C13.54402344 191.63261719 13.05289062 192.29648437 12.546875 192.98046875 C1.37037345 206.99044957 -16.3258378 215.93673652 -33.96484375 217.96875 C-55.93761931 219.73413799 -76.14725436 216.51937324 -93.83984375 202.59375 C-103.10812398 194.51962593 -109.29913695 185.77397485 -114.96484375 174.96875 C-115.42761719 174.10894531 -115.89039063 173.24914062 -116.3671875 172.36328125 C-132.22230281 140.50108466 -133.50748658 96.30433191 -125.96484375 61.96875 C-125.7932373 61.1653418 -125.62163086 60.36193359 -125.44482422 59.53417969 C-119.73783691 33.6359835 -107.73463735 10.79559234 -84.96484375 -4.03125 C-59.1428557 -18.96077701 -24.29149844 -16.64239682 0 0 Z M-82.0546875 31.3203125 C-87.82981119 39.32753921 -91.22236184 47.88520891 -93.77734375 57.34375 C-93.97223389 58.06095215 -94.16712402 58.7781543 -94.36791992 59.51708984 C-97.81685669 73.37059786 -98.34232244 87.39848823 -98.27734375 101.59375 C-98.27552094 102.42336243 -98.27369812 103.25297485 -98.27182007 104.10772705 C-98.176642 129.903775 -96.25123123 159.11604197 -77.37890625 178.77734375 C-66.95019339 188.24418503 -54.89353483 190.79360446 -41.18359375 190.30859375 C-28.99380452 189.53433273 -18.92277228 184.51626521 -10.71484375 175.49609375 C10.29527557 148.47739864 9.72761928 106.27559612 5.84765625 74.15625 C3.35157686 55.78801549 -1.63896514 36.81532592 -15.96484375 23.96875 C-36.19967936 8.62399966 -65.81956968 11.88981363 -82.0546875 31.3203125 Z " fill="#AF4324" transform="translate(1965.96484375,775.03125)"/>
<path d="M0 0 C1.3603627 1.15643736 2.69489109 2.34404822 4 3.5625 C4.67160156 4.18125 5.34320312 4.8 6.03515625 5.4375 C17.11594255 16.71043867 22.295166 32.21899398 24 47.5625 C14.1 47.5625 4.2 47.5625 -6 47.5625 C-7.32 43.6025 -8.64 39.6425 -10 35.5625 C-15.21282808 26.52693134 -21.2643653 20.47413894 -31 16.5625 C-31.7425 16.26214844 -32.485 15.96179688 -33.25 15.65234375 C-46.25870157 11.28223307 -62.54861173 11.91716718 -75 17.5625 C-82.97421068 21.5375232 -87.87788529 27.16605708 -91.13671875 35.453125 C-93.39202377 43.57630506 -92.71102927 51.84316518 -89.203125 59.4765625 C-87.52388706 62.38796854 -85.58046152 64.42260508 -83 66.5625 C-82.22809326 67.21541016 -81.45618652 67.86832031 -80.66088867 68.54101562 C-71.20059889 75.72802355 -58.53783751 77.5510588 -47.1875 80.0625 C-17.12834003 86.75678176 -17.12834003 86.75678176 -4.3125 93.6875 C-3.60754395 94.06729004 -2.90258789 94.44708008 -2.17626953 94.83837891 C11.6675888 102.62377981 21.0440693 113.92828177 26.2734375 128.95703125 C30.97948925 145.83303405 29.08731038 165.61777879 21.4375 181.25 C11.39684491 198.2204775 -4.5072831 208.4436649 -23.375 213.375 C-47.40968792 219.089299 -73.68684885 216.09488554 -94.875 203.1875 C-112.95336911 190.91239435 -123.29645416 174.02789983 -127.58984375 152.84375 C-128.0565742 149.10990638 -128 145.32540121 -128 141.5625 C-118.1 141.5625 -108.2 141.5625 -98 141.5625 C-97.46375 143.975625 -96.9275 146.38875 -96.375 148.875 C-93.2524268 161.78084936 -87.35352331 171.71050272 -76.25 179.3125 C-63.40156783 186.8285789 -47.22120266 188.66474565 -32.8125 185.4375 C-22.80224617 182.53695475 -13.82518514 178.51180679 -8 169.5625 C-2.93788504 160.27677993 -1.41849886 150.76996612 -4.125 140.4375 C-7.3333313 130.91696341 -13.93516781 124.67401789 -22.73291016 120.16040039 C-34.31626771 114.9252206 -46.41608585 112.30063021 -58.76318359 109.46069336 C-75.19208958 105.65426799 -90.60999181 101.30289526 -104 90.5625 C-105.47726562 89.41007812 -105.47726562 89.41007812 -106.984375 88.234375 C-116.19667967 80.4909098 -122.23521896 68.36038803 -124 56.5625 C-124.61264435 45.85558275 -125.19754381 34.61116549 -121 24.5625 C-120.5978125 23.5828125 -120.195625 22.603125 -119.78125 21.59375 C-112.93166133 6.52465493 -100.59389739 -3.68269668 -85.52734375 -10.1171875 C-57.31485021 -20.67734566 -24.52798366 -18.09096565 0 0 Z " fill="#AF4324" transform="translate(1772,409.4375)"/>
<path d="M0 0 C11.11186974 10.61800886 17.80475017 23.6310582 20.8125 38.6875 C20.8125 40.9975 20.8125 43.3075 20.8125 45.6875 C11.2425 45.6875 1.6725 45.6875 -8.1875 45.6875 C-9.1775 42.7175 -10.1675 39.7475 -11.1875 36.6875 C-16.00212863 25.6379983 -22.36932882 19.29424256 -33.4921875 14.6875 C-47.92083163 9.33426392 -64.47355022 10.1551635 -78.4375 16.5 C-86.86505806 21.07644034 -91.17803077 26.6590923 -94.1875 35.6875 C-94.97194205 46.41249454 -94.06383737 53.87299395 -88.0625 62.875 C-78.3917506 73.32518293 -63.14948574 75.3470504 -49.9140625 78.34375 C-24.36590215 84.12866243 2.45513503 90.32189536 17.8125 113.6875 C26.91596425 130.13442542 28.65452551 149.01178647 23.64233398 167.16162109 C18.46835922 184.14853113 7.8579103 196.65088475 -7.765625 205.078125 C-28.84165221 215.30800955 -55.60569126 217.44158086 -78.0625 210.42382812 C-88.96692502 206.64536468 -98.69186027 201.58892674 -107.1875 193.6875 C-107.81785156 193.13578125 -108.44820312 192.5840625 -109.09765625 192.015625 C-120.52408913 181.4681485 -128.16420385 164.96871037 -130.1875 149.6875 C-130.1875 146.3875 -130.1875 143.0875 -130.1875 139.6875 C-120.6175 139.6875 -111.0475 139.6875 -101.1875 139.6875 C-100.1975 143.1525 -100.1975 143.1525 -99.1875 146.6875 C-94.9704756 160.74424799 -89.20229385 171.26785117 -76.1875 178.6875 C-62.59264154 185.96555554 -45.70338279 187.12202535 -30.9296875 182.72265625 C-21.37914395 179.11739408 -13.87561109 174.46595494 -8.91015625 165.33984375 C-4.83088424 156.17962797 -3.92316574 146.23981455 -7.1875 136.6875 C-12.29441392 125.38531345 -20.733324 119.86954114 -32.06542969 115.43310547 C-39.19634916 112.92760293 -46.63048848 111.29660849 -53.9609375 109.48925781 C-59.61237125 108.08495179 -65.24490264 106.61220319 -70.875 105.125 C-71.92453857 104.85631104 -72.97407715 104.58762207 -74.05541992 104.31079102 C-91.26630254 99.76022329 -108.57666986 91.80893292 -118.21142578 76.00830078 C-126.4547672 61.45209626 -128.81562072 45.23996165 -125.53515625 28.71875 C-121.15452025 13.22671537 -111.69840589 1.43901345 -97.98046875 -6.75390625 C-97.05878906 -7.26824219 -96.13710937 -7.78257812 -95.1875 -8.3125 C-94.35863281 -8.77527344 -93.52976562 -9.23804688 -92.67578125 -9.71484375 C-62.88045656 -24.72657701 -26.22817397 -19.02828308 0 0 Z " fill="#AF4324" transform="translate(2567.1875,779.3125)"/>
<path d="M0 0 C9.9 0 19.8 0 30 0 C30 31.02 30 62.04 30 94 C58.05 94 86.1 94 115 94 C115 62.98 115 31.96 115 0 C124.9 0 134.8 0 145 0 C145 73.92 145 147.84 145 224 C135.1 224 125.2 224 115 224 C115 190.67 115 157.34 115 123 C86.95 123 58.9 123 30 123 C30 156.33 30 189.66 30 224 C20.1 224 10.2 224 0 224 C0 150.08 0 76.16 0 0 Z " fill="#AF4324" transform="translate(2046,29)"/>
<path d="M0 0 C10.89 0 21.78 0 33 0 C48.08472318 45.07785459 48.08472318 45.07785459 55.3125 67.375 C61.69299305 87.05699209 68.16421342 106.70877312 74.64056396 126.359375 C76.42684179 131.77963902 78.21188629 137.20030863 79.99658203 142.62109375 C80.28700064 143.50318071 80.57741924 144.38526768 80.87663841 145.29408455 C82.03268427 148.80538536 83.18870102 152.31669576 84.34464645 155.82802963 C87.12318382 164.26803976 89.90224309 172.70786882 92.68945312 181.14501953 C94.5407246 186.74912886 96.38732542 192.35474659 98.22903442 197.96200562 C98.86173532 199.88492722 99.49652019 201.80716455 100.1335144 203.72866821 C100.98371443 206.29394224 101.82681689 208.86143521 102.66796875 211.4296875 C102.91029236 212.15470963 103.15261597 212.87973175 103.40228271 213.62672424 C104.48932123 216.97171558 105 219.43357952 105 223 C94.44 223 83.88 223 73 223 C71.63875 218.936875 70.2775 214.87375 68.875 210.6875 C68.45976074 209.45088623 68.04452148 208.21427246 67.61669922 206.94018555 C64.29286048 196.99235647 61.15999849 187.00666188 58 177 C16.42 176.505 16.42 176.505 -26 176 C-26.99 179.96 -27.98 183.92 -29 188 C-29.87263273 190.95663304 -30.76034364 193.89362841 -31.69921875 196.828125 C-31.9391304 197.5880072 -32.17904205 198.3478894 -32.42622375 199.13079834 C-33.17662557 201.50494439 -33.93194923 203.87748821 -34.6875 206.25 C-35.20410644 207.88140583 -35.72038479 209.51291559 -36.23632812 211.14453125 C-37.48651339 215.09776557 -38.74337698 219.04878466 -40 223 C-50.89 223 -61.78 223 -73 223 C-71.09018179 215.99733324 -69.14082175 209.1243754 -66.85229492 202.25390625 C-66.55247711 201.34601349 -66.2526593 200.43812073 -65.9437561 199.50271606 C-64.95864279 196.52176037 -63.96953676 193.54214562 -62.98046875 190.5625 C-62.27814865 188.43930108 -61.57611303 186.31600804 -60.87434387 184.19262695 C-59.02285129 178.59256881 -57.16811705 172.99359009 -55.3125 167.39489746 C-52.03143269 157.49366451 -48.75593709 147.59058627 -45.48046875 137.6875 C-45.12147554 136.60242094 -44.76248234 135.51734188 -44.39261055 134.39938164 C-38.01186608 115.10984815 -31.70716405 95.79625505 -25.43012047 76.47277355 C-21.17801853 63.38723044 -16.89020846 50.31335975 -12.59936523 37.24047852 C-11.38551682 33.54194659 -10.17364708 29.84276889 -8.9620924 26.14348507 C-8.00834693 23.23251324 -7.05324153 20.321989 -6.09774208 17.41159248 C-5.64868295 16.04299261 -5.20013477 14.67422498 -4.75212669 13.30528069 C-4.13983012 11.43473484 -3.52541643 9.56488239 -2.91088867 7.69506836 C-2.39131844 6.1109037 -2.39131844 6.1109037 -1.86125183 4.49473572 C-1 2 -1 2 0 0 Z M16 42 C9.88554272 60.02569962 4.12954702 78.15268448 -1.52911377 96.32501221 C-2.41115394 99.15511256 -3.29597011 101.98434172 -4.18081188 104.81356716 C-5.05281713 107.60268479 -5.92336683 110.39225512 -6.79348183 113.18196297 C-7.39149909 115.09875213 -7.99042906 117.01525646 -8.58940125 118.93174744 C-11.49288859 128.26239003 -14.24169386 137.62175914 -17 147 C4.78 147 26.56 147 49 147 C46.42169498 136.67763733 46.42169498 136.67763733 43.42797852 126.50024414 C43.07120026 125.3585099 43.07120026 125.3585099 42.70721436 124.19371033 C41.93434102 121.72316701 41.15666637 119.25416501 40.37890625 116.78515625 C39.83195986 115.03992779 39.28532996 113.29460011 38.73899841 111.54917908 C37.30838571 106.98144074 35.87372718 102.41498357 34.43811035 97.84881592 C32.98704195 93.23131112 31.5394727 88.61270996 30.09179688 83.99414062 C28.45840947 78.78314003 26.82477991 73.57221889 25.18788147 68.36231995 C22.43036724 59.5833784 19.69219837 50.79924521 17 42 C16.67 42 16.34 42 16 42 Z " fill="#AF4324" transform="translate(2895,766)"/>
<path d="M0 0 C10.89 0 21.78 0 33 0 C34.17691406 3.59132812 35.35382813 7.18265625 36.56640625 10.8828125 C38.23162525 15.96358939 39.89701739 21.04430952 41.5625 26.125 C41.78330231 26.79857544 42.00410461 27.47215088 42.2315979 28.1661377 C48.92625919 48.58826642 55.62868015 69.00783286 62.33907509 89.42479706 C64.0262216 94.55814265 65.71293684 99.6916298 67.39941406 104.82519531 C68.12334817 107.02876876 68.84728543 109.23234117 69.57122421 111.43591309 C70.05173161 112.89851705 70.53223344 114.36112283 71.01272964 115.82373047 C73.60773331 123.72260711 76.20385386 131.62111334 78.80322266 139.51855469 C81.4751901 147.63664446 84.14550401 155.75527548 86.8125 163.875 C87.02179642 164.51219845 87.23109283 165.1493969 87.44673157 165.80590439 C93.80055081 185.15454845 100.01081604 204.53515214 106 224 C95.11 224 84.22 224 73 224 C65.575 200.735 65.575 200.735 58 177 C16.42 176.505 16.42 176.505 -26 176 C-26.66 178.97 -27.32 181.94 -28 185 C-28.41847145 186.54077082 -28.85554416 188.07691364 -29.32861328 189.60180664 C-29.56871124 190.38193619 -29.8088092 191.16206573 -30.05618286 191.96583557 C-30.30834564 192.7724614 -30.56050842 193.57908722 -30.8203125 194.41015625 C-31.21559647 195.68952309 -31.21559647 195.68952309 -31.61886597 196.99473572 C-32.45091305 199.6850357 -33.28786575 202.37377918 -34.125 205.0625 C-34.69433721 206.90028942 -35.26335065 208.73817917 -35.83203125 210.57617188 C-37.21701954 215.05214716 -38.60864957 219.52597865 -40 224 C-50.89 224 -61.78 224 -73 224 C-71.28781599 217.72199195 -69.62215594 211.61652908 -67.59008789 205.46728516 C-67.36774381 204.79179091 -67.14539972 204.11629667 -66.91631794 203.42033291 C-66.18774048 201.20902737 -65.45521224 198.99905288 -64.72265625 196.7890625 C-64.19876578 195.20145591 -63.67514173 193.61376138 -63.15176392 192.02598572 C-62.03826281 188.64961873 -60.92306949 185.27381756 -59.80648804 181.89846802 C-58.0390912 176.55557574 -56.27562307 171.21139216 -54.51293945 165.86694336 C-53.91618991 164.05772187 -53.31943392 162.24850252 -52.72267151 160.43928528 C-52.42702364 159.54295694 -52.13137577 158.64662861 -51.82676888 157.72313881 C-50.92812967 154.99918415 -50.02911684 152.27535306 -49.12998962 149.55155945 C-43.9621421 133.89518484 -38.81958004 118.23063144 -33.6875 102.5625 C-32.89408176 100.14110057 -32.1006248 97.71971383 -31.30712891 95.29833984 C-30.11548889 91.66198688 -28.92387208 88.02562635 -27.73239136 84.38922119 C-23.10827547 70.27684646 -18.47957915 56.1659747 -13.8500061 42.0553894 C-12.6923598 38.52693774 -11.5349472 34.99840947 -10.3775959 31.46986103 C-9.31311149 28.22463898 -8.24833371 24.97951321 -7.18359375 21.734375 C-6.80330017 20.57479782 -6.42300659 19.41522064 -6.03118896 18.22050476 C-5.67470276 17.1342128 -5.31821655 16.04792084 -4.95092773 14.92871094 C-4.64485092 13.99573181 -4.33877411 13.06275269 -4.02342224 12.10150146 C-2.69136008 8.06466059 -1.34426462 4.03279387 0 0 Z M16 42 C2.00449884 85.89955424 2.00449884 85.89955424 -11.75 129.875 C-12.02548676 130.76362732 -12.30097351 131.65225464 -12.58480835 132.56781006 C-13.34483393 135.02120678 -14.10267147 137.47526439 -14.859375 139.9296875 C-15.08025284 140.64326416 -15.30113068 141.35684082 -15.52870178 142.09204102 C-16.56182943 144.99345149 -16.56182943 144.99345149 -17 148 C4.78 148 26.56 148 49 148 C47.72716679 142.27225056 46.42588341 136.78798402 44.66503906 131.22729492 C44.44029907 130.5070816 44.21555908 129.78686829 43.98400879 129.04483032 C43.24797341 126.68895546 42.50679275 124.33473344 41.765625 121.98046875 C41.244415 120.31499693 40.72356824 118.64941139 40.20306396 116.98371887 C38.83419345 112.60598351 37.46111597 108.22957993 36.08691406 103.85351562 C33.90503162 96.90306164 31.72918819 89.95071288 29.55357361 82.99829483 C29.02985422 81.32479186 28.50598024 79.65133727 27.98194885 77.97793198 C24.23513237 66.01068564 20.53948443 54.03052335 17 42 C16.67 42 16.34 42 16 42 Z " fill="#AF4324" transform="translate(1904,29)"/>
<path d="M0 0 C10.89 0 21.78 0 33 0 C35.54955207 6.37388017 37.95622518 12.6172112 40.046875 19.12890625 C40.330504 20.00208496 40.614133 20.87526367 40.90635681 21.77490234 C41.52740858 23.68777957 42.1469761 25.60113919 42.76522827 27.5149231 C44.52480569 32.9602942 46.29657533 38.40170467 48.06640625 43.84375 C48.45315018 45.03392227 48.8398941 46.22409454 49.23835754 47.45033264 C54.09608141 62.39003486 59.01034727 77.31114407 63.92112732 92.23347092 C65.20271359 96.12824922 66.48368912 100.02322835 67.76464844 103.91821289 C68.01943403 104.69292844 68.27421963 105.46764399 68.536726 106.26583576 C69.05194662 107.83245491 69.56716409 109.3990751 70.08237839 110.96569633 C70.85531281 113.31593209 71.62828907 115.66615408 72.40127563 118.01637268 C77.09279356 132.28083003 81.78326443 146.54563084 86.46794033 160.81233692 C87.57614163 164.18723969 88.68463145 167.56204679 89.79403687 170.93655396 C94.09181285 184.01006186 98.37246085 197.08906723 102.59375 210.1875 C102.9388562 211.25178223 103.2839624 212.31606445 103.63952637 213.41259766 C104.10703308 214.86931885 104.10703308 214.86931885 104.58398438 216.35546875 C104.85867554 217.20778076 105.1333667 218.06009277 105.41638184 218.93823242 C106 221 106 221 106 223 C95.44 223 84.88 223 74 223 C71.52608683 216.81521708 69.17872047 210.80054046 67.203125 204.47265625 C66.9646283 203.71705917 66.72613159 202.9614621 66.48040771 202.18296814 C65.98452582 200.60817913 65.49057633 199.03278037 64.99853516 197.45678711 C64.24342988 195.04148461 63.47949741 192.6290913 62.71484375 190.21679688 C62.23124372 188.67724881 61.74815196 187.13754097 61.265625 185.59765625 C61.03756165 184.87892838 60.80949829 184.1602005 60.57452393 183.41969299 C59.66817336 180.49835686 59 178.07857326 59 175 C31.28 175.33 3.56 175.66 -25 176 C-29.56425885 190.71889963 -29.56425885 190.71889963 -34.12475586 205.43896484 C-34.69631507 207.27966486 -35.26800221 209.12032517 -35.83984375 210.9609375 C-36.13701294 211.92233643 -36.43418213 212.88373535 -36.74035645 213.87426758 C-37.02447388 214.78764893 -37.30859131 215.70103027 -37.60131836 216.64208984 C-37.84780624 217.43706879 -38.09429413 218.23204773 -38.34825134 219.05111694 C-39 221 -39 221 -40 223 C-50.56 223 -61.12 223 -72 223 C-70.87511536 215.12580753 -70.87511536 215.12580753 -69.5480957 211.20605469 C-69.10454742 209.8806366 -69.10454742 209.8806366 -68.65203857 208.52844238 C-68.32987366 207.58577515 -68.00770874 206.64310791 -67.67578125 205.671875 C-67.33855042 204.66862183 -67.00131958 203.66536865 -66.65386963 202.63171387 C-65.92636952 200.46914448 -65.1962055 198.30746979 -64.46365356 196.14660645 C-62.48919016 190.32073288 -60.53532804 184.48793973 -58.578125 178.65625 C-58.18222672 177.47846985 -57.78632843 176.3006897 -57.37843323 175.08721924 C-54.04464326 165.16116457 -50.78655616 155.2121337 -47.5625 145.25 C-41.06185894 125.187578 -34.46448766 105.15727034 -27.86548233 85.12704849 C-18.52285444 56.76883059 -9.20548561 28.40310741 0 0 Z M16 42 C13.15582613 51.01692039 10.31239723 60.03407531 7.4698267 69.05150127 C6.14876402 73.24220553 4.82747892 77.43283934 3.50561523 81.62329102 C0.47641222 91.22667142 -2.54813389 100.83149795 -5.56610107 110.43841553 C-6.51112064 113.44618735 -7.45799282 116.45336561 -8.40655518 119.46002197 C-9.49354983 122.90589513 -10.5764592 126.35302421 -11.6560688 129.80121803 C-12.23913234 131.6599343 -12.82641345 133.5173259 -13.4138031 135.37467957 C-13.92935509 137.02576469 -13.92935509 137.02576469 -14.45532227 138.71020508 C-14.7555983 139.6655867 -15.05587433 140.62096832 -15.36524963 141.6053009 C-16.12810837 144.07041032 -16.12810837 144.07041032 -16 147 C5.78 147 27.56 147 50 147 C46.34952289 135.20894421 46.34952289 135.20894421 42.69799805 123.41821289 C39.66260164 113.61709465 36.63317423 103.81417724 33.61491394 94.00776672 C32.08064042 89.02329352 30.54460265 84.03936464 29.0085144 79.05545044 C28.25530192 76.60981657 27.50295641 74.16391551 26.75149536 71.71774292 C25.68809692 68.25645808 24.62168674 64.79611375 23.5546875 61.3359375 C23.2395369 60.30734116 22.92438629 59.27874481 22.59968567 58.21897888 C20.90505831 52.73456566 19.07757008 47.35150934 17 42 C16.67 42 16.34 42 16 42 Z " fill="#AF4324" transform="translate(1309,398)"/>
<path d="M0 0 C43.89 0 87.78 0 133 0 C133 9.24 133 18.48 133 28 C99.01 28 65.02 28 30 28 C30 49.78 30 71.56 30 94 C62.01 94 94.02 94 127 94 C127 103.24 127 112.48 127 122 C94.99 122 62.98 122 30 122 C30 146.09 30 170.18 30 195 C63.99 195 97.98 195 133 195 C133 204.24 133 213.48 133 223 C89.11 223 45.22 223 0 223 C0 149.41 0 75.82 0 0 Z " fill="#AF4324" transform="translate(2252,766)"/>
<path d="M0 0 C9.9 0 19.8 0 30 0 C30.01981934 4.62209473 30.03963867 9.24418945 30.06005859 14.00634766 C30.1270694 29.30531374 30.20461002 44.60421322 30.28752708 59.90310097 C30.3375269 69.17561845 30.38397066 78.44812765 30.421875 87.72070312 C30.45494365 95.80806667 30.49485558 103.89536344 30.54279006 111.98265302 C30.56790809 116.25990243 30.58973168 120.53710838 30.60334396 124.81441116 C30.61629909 128.85110827 30.63849403 132.88765521 30.66738319 136.92426872 C30.67635507 138.39547399 30.68212446 139.86670336 30.68421364 141.33793449 C30.71132078 157.54656385 31.04979636 176.63485873 43 189 C52.49837682 197.98661082 64.83137607 199.34560428 77.45703125 199.21484375 C88.94680277 198.51811009 99.52707317 195.86379067 107.75 187.5 C118.99414811 173.69917784 119.13653394 153.87280734 119.20532227 137.02514648 C119.21491732 135.52629842 119.22492832 134.02745297 119.23532104 132.52861023 C119.26219999 128.48383447 119.28330089 124.43904724 119.30332303 120.39423251 C119.32528836 116.15815092 119.35262513 111.92210398 119.37937927 107.68605042 C119.42916427 99.67527736 119.47415536 91.66448492 119.51740164 83.65367419 C119.56689581 74.52906964 119.62176852 65.40449988 119.67708123 56.27992904 C119.79068322 37.51998364 119.89685927 18.76000604 120 0 C129.9 0 139.8 0 150 0 C150.0680009 19.71642431 150.12314586 39.43275209 150.15543652 59.14926434 C150.17083525 68.30617694 150.19178911 77.46301094 150.22631836 86.61987305 C150.25643691 94.61093814 150.27562566 102.60194623 150.28226548 110.59306651 C150.28614016 114.8152818 150.29509576 119.03733418 150.31719017 123.25949669 C150.64458291 188.43003349 150.64458291 188.43003349 129.23046875 211.00390625 C111.02370532 227.29752466 87.24924402 228.84390072 64 228 C46.19506676 226.90630199 29.64413105 221.83679757 17.21875 208.625 C1.69713545 190.26139968 -0.1726368 164.59688305 -0.11352539 141.56616211 C-0.1132429 140.01805625 -0.11340246 138.46995026 -0.1139679 136.92184448 C-0.11425347 132.74274676 -0.10839566 128.56367806 -0.10139394 124.38458705 C-0.09512032 120.00839178 -0.09455344 115.63219577 -0.09336853 111.2559967 C-0.090267 102.9795785 -0.08206955 94.70317358 -0.07201904 86.42676121 C-0.06082124 76.99988967 -0.05533823 67.57301748 -0.05032361 58.14614093 C-0.03988591 38.7640849 -0.02155514 19.38204708 0 0 Z " fill="#AF4324" transform="translate(1449,29)"/>
<path d="M0 0 C47.19 0 94.38 0 143 0 C143 9.24 143 18.48 143 28 C124.52 28 106.04 28 87 28 C87 82.78 87 137.56 87 194 C105.48 194 123.96 194 143 194 C143 203.57 143 213.14 143 223 C95.81 223 48.62 223 0 223 C0 213.43 0 203.86 0 194 C18.81 194 37.62 194 57 194 C57 139.22 57 84.44 57 28 C38.19 28 19.38 28 0 28 C0 18.76 0 9.52 0 0 Z " fill="#AF4324" transform="translate(2245,398)"/>
<path d="M0 0 C46.86 0 93.72 0 142 0 C142 9.24 142 18.48 142 28 C123.52 28 105.04 28 86 28 C86 82.78 86 137.56 86 194 C104.48 194 122.96 194 142 194 C142 203.57 142 213.14 142 223 C95.14 223 48.28 223 0 223 C0 213.43 0 203.86 0 194 C18.48 194 36.96 194 56 194 C56 139.22 56 84.44 56 28 C37.52 28 19.04 28 0 28 C0 18.76 0 9.52 0 0 Z " fill="#AF4324" transform="translate(1849,398)"/>
<path d="M0 0 C47.19 0 94.38 0 143 0 C143 9.24 143 18.48 143 28 C124.52 28 106.04 28 87 28 C87 83.11 87 138.22 87 195 C105.48 195 123.96 195 143 195 C143 204.24 143 213.48 143 223 C95.81 223 48.62 223 0 223 C0 213.76 0 204.52 0 195 C18.81 195 37.62 195 57 195 C57 139.89 57 84.78 57 28 C38.19 28 19.38 28 0 28 C0 18.76 0 9.52 0 0 Z " fill="#AF4324" transform="translate(1254,766)"/>
<path d="M0 0 C46.86 0 93.72 0 142 0 C142 9.24 142 18.48 142 28 C123.52 28 105.04 28 86 28 C86 83.11 86 138.22 86 195 C104.48 195 122.96 195 142 195 C142 204.24 142 213.48 142 223 C95.14 223 48.28 223 0 223 C0 213.76 0 204.52 0 195 C18.48 195 36.96 195 56 195 C56 139.89 56 84.78 56 28 C37.52 28 19.04 28 0 28 C0 18.76 0 9.52 0 0 Z " fill="#AF4324" transform="translate(2642,766)"/>
<path d="M0 0 C54.12 0 108.24 0 164 0 C164 9.24 164 18.48 164 28 C141.89 28 119.78 28 97 28 C97 92.35 97 156.7 97 223 C87.1 223 77.2 223 67 223 C67 158.65 67 94.3 67 28 C44.89 28 22.78 28 0 28 C0 18.76 0 9.52 0 0 Z " fill="#AF4324" transform="translate(1442,398)"/>
</svg>
