<?xml version="1.0" encoding="UTF-8"?>
<svg version="1.1" xmlns="http://www.w3.org/2000/svg" width="180" height="178">
<path d="M0 0 C51.81 0 103.62 0 157 0 C157 51.48 157 102.96 157 156 C105.19 156 53.38 156 0 156 C0 104.52 0 53.04 0 0 Z M11 11 C11 55.55 11 100.1 11 146 C34.43 146 57.86 146 82 146 C80.59878364 137.42066355 80.59878364 137.42066355 78.0859375 129.59765625 C75.80532901 123.64929766 74.20808881 117.60241316 72.625 111.4375 C70.35046313 102.70952468 67.91486427 94.1247718 64.68994141 85.69506836 C61.75321625 77.59968821 64.56873915 70.47691224 66.875 62.5625 C67.13152344 61.65951172 67.38804688 60.75652344 67.65234375 59.82617188 C68.80607396 55.82290197 70.00197918 51.87800314 71.5078125 47.9921875 C73.33206924 43.27524897 74.65161132 38.43285184 76 33.5625 C77.65626312 27.60599122 79.37270477 21.71593435 81.44921875 15.89038086 C82.1398643 13.84812452 82.1398643 13.84812452 82 11 C58.57 11 35.14 11 11 11 Z M94 11 C90.51921046 18.80247743 90.51921046 18.80247743 88.1875 26.6875 C86.54109697 33.25081709 84.57156424 39.68402033 82.5 46.125 C82.19723145 47.06794922 81.89446289 48.01089844 81.58251953 48.98242188 C80.99305642 50.81516868 80.40291098 52.64769619 79.81201172 54.47998047 C78.71680757 57.87886718 77.63219013 61.28047983 76.5625 64.6875 C76.10037109 66.14736328 76.10037109 66.14736328 75.62890625 67.63671875 C74.87141723 70.0755952 74.87141723 70.0755952 75 73 C98.43 73 121.86 73 146 73 C146 52.54 146 32.08 146 11 C128.84 11 111.68 11 94 11 Z M75 83 C77.327448 92.30979202 79.55315722 100.85006444 82.64453125 109.80078125 C84.64542456 115.8005122 86.19505055 121.93801971 87.76904297 128.06103516 C88.00123535 128.94452637 88.23342773 129.82801758 88.47265625 130.73828125 C88.67125244 131.51212158 88.86984863 132.28596191 89.07446289 133.08325195 C90.46818145 137.47543229 92.28863033 141.72157583 94 146 C111.16 146 128.32 146 146 146 C146 125.21 146 104.42 146 83 C122.57 83 99.14 83 75 83 Z " fill="#ABABAB" transform="translate(13,15)"/>
</svg>
